<svg xmlns="http://www.w3.org/2000/svg" viewBox="0 0 360 300" font-family="system-ui,sans-serif">
  <rect width="360" height="300" fill="#0d1117"/>

  <!-- Pistil outline -->
  <!-- Stigma — no inline text -->
  <ellipse cx="180" cy="30" rx="30" ry="12" fill="#2a1a0a" stroke="#e8c891" stroke-width="2"/>
  <!-- Style -->
  <rect x="174" y="42" width="12" height="60" rx="4" fill="#1e1a0a" stroke="#e8c891" stroke-width="1.5"/>
  <!-- Ovary -->
  <ellipse cx="180" cy="130" rx="55" ry="42" fill="#1a1208" stroke="#e8c891" stroke-width="2"/>

  <!-- рыльце пестика — external left label (2 lines, clear of stigma width) -->
  <line x1="65" y1="30" x2="150" y2="30" stroke="#8b949e" stroke-width="0.8"/>
  <text x="5" y="25" font-size="11" fill="#e8c891">рыльце</text>
  <text x="5" y="38" font-size="11" fill="#e8c891">пестика</text>

  <!-- завязь — label above ovary, left side -->
  <line x1="60" y1="90" x2="125" y2="95" stroke="#8b949e" stroke-width="0.8"/>
  <text x="5" y="88" font-size="11" fill="#e8c891">завязь</text>

  <!-- Embryo sac (зародышевый мешок) inside ovary -->
  <ellipse cx="180" cy="133" rx="38" ry="28" fill="#0d1117" stroke="#a8c5d8" stroke-width="1.5" stroke-dasharray="4,2"/>

  <!-- Egg cell — no inline label -->
  <circle cx="180" cy="128" r="10" fill="#1a2a1a" stroke="#8cc882" stroke-width="2"/>
  <!-- Egg cell external label: left side -->
  <line x1="75" y1="122" x2="170" y2="125" stroke="#8b949e" stroke-width="0.8"/>
  <text x="5" y="118" font-size="11" fill="#8cc882">яйце-</text>
  <text x="5" y="131" font-size="11" fill="#8cc882">клетка</text>

  <!-- Central cell — no inline label -->
  <ellipse cx="180" cy="148" rx="14" ry="8" fill="#1a1a2a" stroke="#a8c5d8" stroke-width="1.5"/>
  <!-- Central cell label: right side -->
  <line x1="194" y1="148" x2="208" y2="148" stroke="#8b949e" stroke-width="0.8"/>
  <text x="210" y="152" font-size="11" fill="#a8c5d8">центр. кл.</text>

  <!-- Pollen grain on stigma -->
  <circle cx="200" cy="28" r="8" fill="#3d3520" stroke="#e8c891" stroke-width="1.5"/>
  <!-- пыльца label: right of pollen grain -->
  <text x="212" y="32" font-size="11" fill="#e8c891">пыльца</text>

  <!-- Pollen tube -->
  <path d="M198,36 C200,55 185,70 180,102" stroke="#e8c891" stroke-width="2" fill="none" stroke-dasharray="5,3"/>

  <!-- Two sperms — labels to the right of tube -->
  <circle cx="191" cy="62" r="5" fill="#e8c891" opacity="0.9"/>
  <text x="200" y="65" font-size="11" fill="#e8c891">спм1</text>

  <circle cx="185" cy="80" r="5" fill="#e8c891" opacity="0.7"/>
  <text x="196" y="83" font-size="11" fill="#e8c891">спм2</text>

  <!-- Fusion 1: sperm + egg -->
  <line x1="180" y1="102" x2="180" y2="120" stroke="#e8c891" stroke-width="1.5" marker-end="url(#f_arr)"/>

  <!-- Fusion 2: sperm + central cell -->
  <path d="M180,108 C175,120 175,135 180,140" stroke="#a8c5d8" stroke-width="1.5" fill="none" marker-end="url(#f_arr2)"/>

  <!-- Results -->
  <!-- Zygote → embryo -->
  <rect x="8" y="165" width="140" height="52" rx="6" fill="#0f2a0f" stroke="#8cc882" stroke-width="1.5"/>
  <text x="78" y="181" text-anchor="middle" font-size="11" fill="#8cc882" font-weight="600">спм1 + яйцеклетка</text>
  <text x="78" y="194" text-anchor="middle" font-size="11" fill="#e8c891">= зигота</text>
  <text x="78" y="207" text-anchor="middle" font-size="11" fill="#8b949e">→ зародыш семени</text>
  <line x1="148" y1="189" x2="175" y2="140" stroke="#8cc882" stroke-width="1" stroke-dasharray="3,2"/>

  <!-- Endosperm -->
  <rect x="212" y="165" width="140" height="52" rx="6" fill="#0a1a2a" stroke="#a8c5d8" stroke-width="1.5"/>
  <text x="282" y="181" text-anchor="middle" font-size="11" fill="#a8c5d8" font-weight="600">спм2 + центр. кл.</text>
  <text x="282" y="194" text-anchor="middle" font-size="11" fill="#e8c891">= 3n клетка</text>
  <text x="282" y="207" text-anchor="middle" font-size="11" fill="#8b949e">→ эндосперм</text>
  <line x1="212" y1="189" x2="185" y2="148" stroke="#a8c5d8" stroke-width="1" stroke-dasharray="3,2"/>

  <!-- Seed formed -->
  <rect x="90" y="232" width="180" height="40" rx="6" fill="#1e1208" stroke="#e8c891" stroke-width="1.5"/>
  <text x="180" y="248" text-anchor="middle" font-size="11" fill="#e8c891" font-weight="600">СЕМЯ</text>
  <text x="180" y="264" text-anchor="middle" font-size="11" fill="#8b949e">зародыш+эндосперм+кожура</text>
  <line x1="78"  y1="217" x2="130" y2="232" stroke="#8b949e" stroke-width="1" stroke-dasharray="3,2"/>
  <line x1="282" y1="217" x2="230" y2="232" stroke="#8b949e" stroke-width="1" stroke-dasharray="3,2"/>

  <defs>
    <marker id="f_arr" markerWidth="6" markerHeight="6" refX="6" refY="3" orient="auto">
      <path d="M0,0 L6,3 L0,6Z" fill="#e8c891"/>
    </marker>
    <marker id="f_arr2" markerWidth="6" markerHeight="6" refX="6" refY="3" orient="auto">
      <path d="M0,0 L6,3 L0,6Z" fill="#a8c5d8"/>
    </marker>
  </defs>

  <text x="180" y="293" text-anchor="middle" font-size="11" fill="#8b949e">Двойное оплодотворение (С.Г. Навашин, 1898)</text>
</svg>
