<svg xmlns="http://www.w3.org/2000/svg" viewBox="0 0 360 300" font-family="system-ui,sans-serif">
  <rect width="360" height="300" fill="#0d1117"/>

  <!-- Pistil outline -->
  <!-- Stigma -->
  <ellipse cx="180" cy="30" rx="30" ry="12" fill="#2a1a0a" stroke="#e8c891" stroke-width="2"/>
  <text x="180" y="34" text-anchor="middle" font-size="10" fill="#e8c891">рыльце пестика</text>
  <!-- Style -->
  <rect x="174" y="42" width="12" height="60" rx="4" fill="#1e1a0a" stroke="#e8c891" stroke-width="1.5"/>
  <!-- Ovary -->
  <ellipse cx="180" cy="130" rx="55" ry="42" fill="#1a1208" stroke="#e8c891" stroke-width="2"/>
  <text x="180" y="98" text-anchor="middle" font-size="10" fill="#e8c891">завязь</text>

  <!-- Embryo sac (зародышевый мешок) inside ovary -->
  <ellipse cx="180" cy="133" rx="38" ry="28" fill="#0d1117" stroke="#a8c5d8" stroke-width="1.5" stroke-dasharray="4,2"/>

  <!-- Egg cell -->
  <circle cx="180" cy="128" r="10" fill="#1a2a1a" stroke="#8cc882" stroke-width="2"/>
  <text x="180" y="132" text-anchor="middle" font-size="9" fill="#8cc882">яйц</text>

  <!-- Central cell -->
  <ellipse cx="180" cy="148" rx="14" ry="8" fill="#1a1a2a" stroke="#a8c5d8" stroke-width="1.5"/>
  <text x="180" y="152" text-anchor="middle" font-size="9" fill="#a8c5d8">центр. кл.</text>

  <!-- Pollen grain on stigma -->
  <circle cx="200" cy="28" r="8" fill="#3d3520" stroke="#e8c891" stroke-width="1.5"/>
  <text x="200" y="22" text-anchor="middle" font-size="9" fill="#e8c891">пыльца</text>

  <!-- Pollen tube -->
  <path d="M198,36 C200,55 185,70 180,102" stroke="#e8c891" stroke-width="2" fill="none" stroke-dasharray="5,3"/>

  <!-- Two sperms moving down the tube -->
  <circle cx="191" cy="62" r="5" fill="#e8c891" opacity="0.9"/>
  <text x="191" y="55" text-anchor="middle" font-size="9" fill="#e8c891">спм1</text>
  <circle cx="185" cy="80" r="5" fill="#e8c891" opacity="0.7"/>
  <text x="185" y="73" text-anchor="middle" font-size="9" fill="#e8c891">спм2</text>

  <!-- Fusion 1: sperm + egg -->
  <line x1="180" y1="102" x2="180" y2="120" stroke="#e8c891" stroke-width="1.5" marker-end="url(#f_arr)"/>

  <!-- Fusion 2: sperm + central cell -->
  <path d="M180,108 C175,120 175,135 180,140" stroke="#a8c5d8" stroke-width="1.5" fill="none" marker-end="url(#f_arr2)"/>

  <!-- Results -->
  <!-- Zygote → embryo -->
  <rect x="10" y="155" width="130" height="50" rx="6" fill="#0f2a0f" stroke="#8cc882" stroke-width="1.5"/>
  <text x="75" y="172" text-anchor="middle" font-size="10" fill="#8cc882" font-weight="600">спм1 + яйцеклетка</text>
  <text x="75" y="184" text-anchor="middle" font-size="10" fill="#e8c891">= зигота</text>
  <text x="75" y="197" text-anchor="middle" font-size="9"  fill="#8b949e">→ зародыш семени</text>
  <line x1="140" y1="180" x2="175" y2="140" stroke="#8cc882" stroke-width="1" stroke-dasharray="3,2"/>

  <!-- Endosperm -->
  <rect x="220" y="155" width="130" height="50" rx="6" fill="#0a1a2a" stroke="#a8c5d8" stroke-width="1.5"/>
  <text x="285" y="172" text-anchor="middle" font-size="10" fill="#a8c5d8" font-weight="600">спм2 + центр. кл.</text>
  <text x="285" y="184" text-anchor="middle" font-size="10" fill="#e8c891">= 3n клетка</text>
  <text x="285" y="197" text-anchor="middle" font-size="9"  fill="#8b949e">→ эндосперм</text>
  <line x1="220" y1="180" x2="185" y2="148" stroke="#a8c5d8" stroke-width="1" stroke-dasharray="3,2"/>

  <!-- Seed formed -->
  <rect x="90" y="230" width="180" height="38" rx="6" fill="#1e1208" stroke="#e8c891" stroke-width="1.5"/>
  <text x="180" y="246" text-anchor="middle" font-size="10" fill="#e8c891" font-weight="600">СЕМЯ</text>
  <text x="180" y="260" text-anchor="middle" font-size="9"  fill="#8b949e">зародыш + эндосперм + кожура</text>
  <line x1="75"  y1="205" x2="130" y2="230" stroke="#8b949e" stroke-width="1" stroke-dasharray="3,2"/>
  <line x1="285" y1="205" x2="230" y2="230" stroke="#8b949e" stroke-width="1" stroke-dasharray="3,2"/>

  <defs>
    <marker id="f_arr" markerWidth="6" markerHeight="6" refX="6" refY="3" orient="auto">
      <path d="M0,0 L6,3 L0,6Z" fill="#e8c891"/>
    </marker>
    <marker id="f_arr2" markerWidth="6" markerHeight="6" refX="6" refY="3" orient="auto">
      <path d="M0,0 L6,3 L0,6Z" fill="#a8c5d8"/>
    </marker>
  </defs>

  <text x="180" y="293" text-anchor="middle" font-size="11" fill="#8b949e">Двойное оплодотворение (С.Г. Навашин, 1898)</text>
</svg>
