<svg xmlns="http://www.w3.org/2000/svg" viewBox="0 0 360 300" font-family="system-ui,sans-serif">
  <rect width="360" height="300" fill="#0d1117"/>
  <text x="180" y="16" text-anchor="middle" font-size="12" fill="#e8c891" font-weight="600">Типы соцветий</text>

  <!-- 1. Кисть (Raceme) - смородина -->
  <g transform="translate(45,30)">
    <text x="0" y="16" text-anchor="middle" font-size="9" fill="#8b949e">Кисть</text>
    <!-- Main axis -->
    <line x1="0" y1="22" x2="0" y2="115" stroke="#8cc882" stroke-width="2"/>
    <!-- Flowers on pedicels -->
    <line x1="0" y1="35" x2="18" y2="35" stroke="#8b949e" stroke-width="1"/>
    <circle cx="22" cy="35" r="7" fill="#2a0a2a" stroke="#e8a070" stroke-width="1.5"/>
    <line x1="0" y1="52" x2="18" y2="52" stroke="#8b949e" stroke-width="1"/>
    <circle cx="22" cy="52" r="7" fill="#2a0a2a" stroke="#e8a070" stroke-width="1.5"/>
    <line x1="0" y1="69" x2="18" y2="69" stroke="#8b949e" stroke-width="1"/>
    <circle cx="22" cy="69" r="7" fill="#2a0a2a" stroke="#e8a070" stroke-width="1.5"/>
    <line x1="0" y1="86" x2="18" y2="86" stroke="#8b949e" stroke-width="1"/>
    <circle cx="22" cy="86" r="7" fill="#2a0a2a" stroke="#e8a070" stroke-width="1.5"/>
    <line x1="0" y1="103" x2="18" y2="103" stroke="#8b949e" stroke-width="1"/>
    <circle cx="22" cy="103" r="7" fill="#2a0a2a" stroke="#e8a070" stroke-width="1.5"/>
    <text x="4" y="130" text-anchor="middle" font-size="9" fill="#8b949e">смородина</text>
  </g>

  <!-- 2. Зонтик (Umbel) - морковь -->
  <g transform="translate(127,30)">
    <text x="0" y="16" text-anchor="middle" font-size="9" fill="#8b949e">Зонтик</text>
    <!-- Main axis -->
    <line x1="0" y1="22" x2="0" y2="60" stroke="#8cc882" stroke-width="2"/>
    <!-- Pedicels -->
    <line x1="0" y1="60" x2="-32" y2="38" stroke="#8b949e" stroke-width="1.2"/>
    <line x1="0" y1="60" x2="-16" y2="32" stroke="#8b949e" stroke-width="1.2"/>
    <line x1="0" y1="60" x2="0" y2="28" stroke="#8b949e" stroke-width="1.2"/>
    <line x1="0" y1="60" x2="16" y2="32" stroke="#8b949e" stroke-width="1.2"/>
    <line x1="0" y1="60" x2="32" y2="38" stroke="#8b949e" stroke-width="1.2"/>
    <!-- Flowers -->
    <circle cx="-32" cy="34" r="7" fill="#2a1808" stroke="#e8c891" stroke-width="1.5"/>
    <circle cx="-16" cy="28" r="7" fill="#2a1808" stroke="#e8c891" stroke-width="1.5"/>
    <circle cx="0" cy="24" r="7" fill="#2a1808" stroke="#e8c891" stroke-width="1.5"/>
    <circle cx="16" cy="28" r="7" fill="#2a1808" stroke="#e8c891" stroke-width="1.5"/>
    <circle cx="32" cy="34" r="7" fill="#2a1808" stroke="#e8c891" stroke-width="1.5"/>
    <!-- Stem continues -->
    <line x1="0" y1="60" x2="0" y2="115" stroke="#8cc882" stroke-width="2"/>
    <text x="4" y="130" text-anchor="middle" font-size="9" fill="#8b949e">лук, морковь</text>
  </g>

  <!-- 3. Корзинка (Head/Capitulum) - подсолнечник -->
  <g transform="translate(230,30)">
    <text x="0" y="16" text-anchor="middle" font-size="9" fill="#8b949e">Корзинка</text>
    <!-- Main axis -->
    <line x1="0" y1="90" x2="0" y2="115" stroke="#8cc882" stroke-width="2"/>
    <!-- Receptacle disk -->
    <ellipse cx="0" cy="72" rx="38" ry="20" fill="#1a1208" stroke="#e8c891" stroke-width="2"/>
    <!-- Disk florets (central) -->
    <circle cx="0" cy="72" r="8" fill="#2a1808" stroke="#e8c891" stroke-width="1"/>
    <circle cx="12" cy="68" r="6" fill="#2a1808" stroke="#e8c891" stroke-width="1"/>
    <circle cx="-12" cy="68" r="6" fill="#2a1808" stroke="#e8c891" stroke-width="1"/>
    <circle cx="8" cy="80" r="6" fill="#2a1808" stroke="#e8c891" stroke-width="1"/>
    <circle cx="-8" cy="80" r="6" fill="#2a1808" stroke="#e8c891" stroke-width="1"/>
    <!-- Ray florets (strap-shaped) -->
    <ellipse cx="38" cy="62" rx="10" ry="5" fill="#3a3a0a" stroke="#e8c891" stroke-width="1.5" transform="rotate(-25,38,62)"/>
    <ellipse cx="-38" cy="62" rx="10" ry="5" fill="#3a3a0a" stroke="#e8c891" stroke-width="1.5" transform="rotate(25,-38,62)"/>
    <ellipse cx="22" cy="45" rx="10" ry="5" fill="#3a3a0a" stroke="#e8c891" stroke-width="1.5" transform="rotate(-10,22,45)"/>
    <ellipse cx="-22" cy="45" rx="10" ry="5" fill="#3a3a0a" stroke="#e8c891" stroke-width="1.5" transform="rotate(10,-22,45)"/>
    <ellipse cx="0" cy="38" rx="10" ry="5" fill="#3a3a0a" stroke="#e8c891" stroke-width="1.5"/>
    <text x="4" y="130" text-anchor="middle" font-size="9" fill="#8b949e">ромашка, подсолн.</text>
  </g>

  <!-- Bottom row -->
  <!-- 4. Колос (Spike) - пшеница -->
  <g transform="translate(55,175)">
    <text x="0" y="0" text-anchor="middle" font-size="9" fill="#8b949e">Колос</text>
    <line x1="0" y1="8" x2="0" y2="90" stroke="#8cc882" stroke-width="2"/>
    <g fill="#2a1808" stroke="#e8c891" stroke-width="1">
      <rect x="-10" y="12" width="20" height="10" rx="2"/>
      <rect x="-10" y="26" width="20" height="10" rx="2"/>
      <rect x="-10" y="40" width="20" height="10" rx="2"/>
      <rect x="-10" y="54" width="20" height="10" rx="2"/>
      <rect x="-10" y="68" width="20" height="10" rx="2"/>
    </g>
    <text x="2" y="106" text-anchor="middle" font-size="9" fill="#8b949e">пшеница, рожь</text>
  </g>

  <!-- 5. Метёлка (Panicle) - овёс -->
  <g transform="translate(155,175)">
    <text x="0" y="0" text-anchor="middle" font-size="9" fill="#8b949e">Метёлка</text>
    <line x1="0" y1="8" x2="0" y2="90" stroke="#8cc882" stroke-width="2"/>
    <!-- Branches -->
    <line x1="0" y1="22" x2="-25" y2="40" stroke="#8b949e" stroke-width="1.2"/>
    <line x1="0" y1="22" x2="25" y2="40" stroke="#8b949e" stroke-width="1.2"/>
    <line x1="0" y1="40" x2="-20" y2="55" stroke="#8b949e" stroke-width="1.2"/>
    <line x1="0" y1="40" x2="20" y2="55" stroke="#8b949e" stroke-width="1.2"/>
    <line x1="0" y1="58" x2="-15" y2="70" stroke="#8b949e" stroke-width="1.2"/>
    <line x1="0" y1="58" x2="15" y2="70" stroke="#8b949e" stroke-width="1.2"/>
    <!-- Spikelets -->
    <ellipse cx="-25" cy="44" rx="5" ry="3" fill="#2a1808" stroke="#e8c891" stroke-width="1"/>
    <ellipse cx="25" cy="44" rx="5" ry="3" fill="#2a1808" stroke="#e8c891" stroke-width="1"/>
    <ellipse cx="-20" cy="58" rx="5" ry="3" fill="#2a1808" stroke="#e8c891" stroke-width="1"/>
    <ellipse cx="20" cy="58" rx="5" ry="3" fill="#2a1808" stroke="#e8c891" stroke-width="1"/>
    <ellipse cx="-15" cy="73" rx="5" ry="3" fill="#2a1808" stroke="#e8c891" stroke-width="1"/>
    <ellipse cx="15" cy="73" rx="5" ry="3" fill="#2a1808" stroke="#e8c891" stroke-width="1"/>
    <text x="2" y="106" text-anchor="middle" font-size="9" fill="#8b949e">овёс, просо</text>
  </g>

  <!-- 6. Початок (Spadix) - кукуруза -->
  <g transform="translate(285,175)">
    <text x="0" y="0" text-anchor="middle" font-size="9" fill="#8b949e">Початок</text>
    <line x1="0" y1="8" x2="0" y2="90" stroke="#8cc882" stroke-width="2"/>
    <rect x="-15" y="22" width="30" height="62" rx="6" fill="#2a1808" stroke="#e8c891" stroke-width="2"/>
    <!-- Rows of flowers -->
    <g fill="#e8c891" opacity="0.6">
      <circle cx="-8" cy="35" r="2.5"/><circle cx="0" cy="35" r="2.5"/><circle cx="8" cy="35" r="2.5"/>
      <circle cx="-8" cy="47" r="2.5"/><circle cx="0" cy="47" r="2.5"/><circle cx="8" cy="47" r="2.5"/>
      <circle cx="-8" cy="59" r="2.5"/><circle cx="0" cy="59" r="2.5"/><circle cx="8" cy="59" r="2.5"/>
      <circle cx="-8" cy="71" r="2.5"/><circle cx="0" cy="71" r="2.5"/><circle cx="8" cy="71" r="2.5"/>
    </g>
    <text x="2" y="106" text-anchor="middle" font-size="9" fill="#8b949e">кукуруза, аир</text>
  </g>

  <text x="180" y="285" text-anchor="middle" font-size="11" fill="#8b949e">Типы соцветий покрытосеменных</text>
</svg>
