<svg xmlns="http://www.w3.org/2000/svg" viewBox="0 0 360 300" font-family="system-ui,sans-serif">
  <rect width="360" height="300" fill="#0d1117"/>
  <text x="180" y="16" text-anchor="middle" font-size="12" fill="#e8c891" font-weight="600">Жизненные формы растений</text>

  <!-- Ground line -->
  <line x1="10" y1="230" x2="350" y2="230" stroke="#3d2a10" stroke-width="2"/>

  <!-- 1. Дерево (Tree) -->
  <g transform="translate(55,30)">
    <text x="0" y="8" text-anchor="middle" font-size="11" fill="#8cc882">Дерево</text>
    <!-- Crown -->
    <ellipse cx="0" cy="80" rx="35" ry="55" fill="#1a3a1a" stroke="#8cc882" stroke-width="1.5"/>
    <!-- Trunk -->
    <rect x="-8" y="135" width="16" height="65" rx="3" fill="#2a1808" stroke="#8cc882" stroke-width="1.5"/>
    <!-- One main trunk annotation -->
    <text x="22" y="175" font-size="11" fill="#8b949e">1 ствол</text>
    <line x1="20" y1="172" x2="9" y2="172" stroke="#8b949e" stroke-width="0.7"/>
    <text x="0" y="216" text-anchor="middle" font-size="11" fill="#8b949e">1 стебель-ствол</text>
    <text x="0" y="228" text-anchor="middle" font-size="11" fill="#8b949e">одревесневший</text>
    <!-- Examples -->
    <text x="0" y="250" text-anchor="middle" font-size="11" fill="#8cc882">дуб, берёза, сосна</text>
    <text x="0" y="262" text-anchor="middle" font-size="11" fill="#8b949e">до 1000+ лет</text>
  </g>

  <!-- 2. Кустарник (Shrub) -->
  <g transform="translate(180,30)">
    <text x="0" y="8" text-anchor="middle" font-size="11" fill="#a8c5d8">Кустарник</text>
    <!-- Multiple crowns/stems -->
    <ellipse cx="-18" cy="105" rx="22" ry="38" fill="#1a2a3a" stroke="#a8c5d8" stroke-width="1.5"/>
    <ellipse cx="0" cy="98" rx="22" ry="42" fill="#1a2a3a" stroke="#a8c5d8" stroke-width="1.5"/>
    <ellipse cx="18" cy="105" rx="22" ry="38" fill="#1a2a3a" stroke="#a8c5d8" stroke-width="1.5"/>
    <!-- Multiple stems -->
    <line x1="-18" y1="143" x2="-18" y2="200" stroke="#a8c5d8" stroke-width="3"/>
    <line x1="0" y1="140" x2="0" y2="200" stroke="#a8c5d8" stroke-width="3"/>
    <line x1="18" y1="143" x2="18" y2="200" stroke="#a8c5d8" stroke-width="3"/>
    <text x="34" y="178" font-size="11" fill="#8b949e">много</text>
    <text x="34" y="190" font-size="11" fill="#8b949e">стволов</text>
    <text x="0" y="216" text-anchor="middle" font-size="11" fill="#8b949e">несколько стволов</text>
    <text x="0" y="228" text-anchor="middle" font-size="11" fill="#8b949e">одревесневших</text>
    <text x="0" y="250" text-anchor="middle" font-size="11" fill="#a8c5d8">сирень, смородина</text>
    <text x="0" y="262" text-anchor="middle" font-size="11" fill="#8b949e">роза, боярышник</text>
  </g>

  <!-- 3. Трава (Herb) -->
  <g transform="translate(308,30)">
    <text x="0" y="8" text-anchor="middle" font-size="11" fill="#e8a070">Трава</text>
    <!-- Herbaceous stems with leaves -->
    <line x1="-8" y1="70" x2="-8" y2="200" stroke="#8cc882" stroke-width="2.5"/>
    <line x1="8" y1="85" x2="8" y2="200" stroke="#8cc882" stroke-width="2.5"/>
    <!-- Leaves -->
    <ellipse cx="-22" cy="115" rx="16" ry="8" fill="#1a3a1a" stroke="#8cc882" stroke-width="1" transform="rotate(-25,-22,115)"/>
    <ellipse cx="4" cy="105" rx="16" ry="8" fill="#1a3a1a" stroke="#8cc882" stroke-width="1" transform="rotate(20,4,105)"/>
    <ellipse cx="-22" cy="150" rx="14" ry="7" fill="#1a3a1a" stroke="#8cc882" stroke-width="1" transform="rotate(-20,-22,150)"/>
    <ellipse cx="22" cy="140" rx="14" ry="7" fill="#1a3a1a" stroke="#8cc882" stroke-width="1" transform="rotate(25,22,140)"/>
    <!-- Flower -->
    <circle cx="-8" cy="62" r="8" fill="#3a3a0a" stroke="#e8c891" stroke-width="1.5"/>
    <text x="0" y="213" text-anchor="middle" font-size="11" fill="#8b949e">стебли не</text>
    <text x="0" y="226" text-anchor="middle" font-size="11" fill="#8b949e">одревесневают</text>
    <text x="0" y="250" text-anchor="middle" font-size="11" fill="#e8a070">пшеница, ромашка</text>
    <text x="0" y="262" text-anchor="middle" font-size="11" fill="#8b949e">одуванчик, фасоль</text>
  </g>

  <!-- Bottom legend: однолетние / многолетние -->
  <rect x="10" y="268" width="340" height="26" rx="5" fill="#111" stroke="#30363d" stroke-width="1"/>
  <text x="90" y="285" text-anchor="middle" font-size="11" fill="#e8c891">Однолетние (фасоль, огурец)</text>
  <text x="180" y="285" text-anchor="middle" font-size="11" fill="#30363d">|</text>
  <text x="272" y="285" text-anchor="middle" font-size="11" fill="#8cc882">Многолетние (берёза, дуб)</text>
</svg>
