<svg xmlns="http://www.w3.org/2000/svg" viewBox="0 0 360 300" font-family="system-ui,sans-serif">
  <rect width="360" height="300" fill="#0d1117"/>
  <text x="180" y="16" text-anchor="middle" font-size="12" fill="#e8c891" font-weight="600" textLength="340" lengthAdjust="spacing">Зоны роста растения (меристемы)</text>

  <!-- Left: Root tip with zones -->
  <rect x="10" y="26" width="155" height="250" rx="8" fill="#0a1a0a" stroke="#8cc882" stroke-width="1.5"/>
  <text x="87" y="44" text-anchor="middle" font-size="11" fill="#8cc882">Кончик корня</text>

  <!-- Zone 5: Maturation zone (top) -->
  <rect x="62" y="52" width="52" height="40" rx="3" fill="#0d200d" stroke="#8cc882" stroke-width="1"/>
  <text x="87" y="73" text-anchor="middle" font-size="11" fill="#8b949e">зона всасывания</text>
  <!-- Root hairs -->
  <line x1="62" y1="58" x2="48" y2="55" stroke="#8cc882" stroke-width="1.2"/>
  <line x1="62" y1="67" x2="45" y2="64" stroke="#8cc882" stroke-width="1.2"/>
  <line x1="62" y1="76" x2="47" y2="73" stroke="#8cc882" stroke-width="1.2"/>
  <line x1="62" y1="85" x2="49" y2="82" stroke="#8cc882" stroke-width="1.2"/>
  <line x1="114" y1="58" x2="128" y2="55" stroke="#8cc882" stroke-width="1.2"/>
  <line x1="114" y1="70" x2="129" y2="67" stroke="#8cc882" stroke-width="1.2"/>
  <line x1="114" y1="82" x2="130" y2="79" stroke="#8cc882" stroke-width="1.2"/>

  <!-- Zone 4: Elongation zone -->
  <rect x="62" y="94" width="52" height="45" rx="3" fill="#0f2a0f" stroke="#a8c5d8" stroke-width="1.5"/>
  <!-- Elongating cells (tall) -->
  <g fill="#1a2a1a" stroke="#a8c5d8" stroke-width="0.8">
    <rect x="66" y="97" width="10" height="40" rx="1"/>
    <rect x="79" y="97" width="10" height="40" rx="1"/>
    <rect x="92" y="97" width="10" height="40" rx="1"/>
    <rect x="105" y="97" width="8" height="40" rx="1"/>
  </g>
  <text x="87" y="145" text-anchor="middle" font-size="11" fill="#a8c5d8">зона растяжения</text>

  <!-- Zone 3: Meristem zone -->
  <rect x="62" y="141" width="52" height="45" rx="3" fill="#0a2a0a" stroke="#e8c891" stroke-width="2"/>
  <!-- Small dividing cells (square) -->
  <g fill="#1a3a1a" stroke="#e8c891" stroke-width="0.8">
    <rect x="66" y="144" width="12" height="12" rx="1"/><rect x="80" y="144" width="12" height="12" rx="1"/>
    <rect x="94" y="144" width="12" height="12" rx="1"/>
    <rect x="66" y="158" width="12" height="12" rx="1"/><rect x="80" y="158" width="12" height="12" rx="1"/>
    <rect x="94" y="158" width="12" height="12" rx="1"/>
    <rect x="66" y="172" width="12" height="12" rx="1"/><rect x="80" y="172" width="12" height="12" rx="1"/>
    <rect x="94" y="172" width="12" height="12" rx="1"/>
  </g>
  <text x="87" y="191" text-anchor="middle" font-size="11" fill="#e8c891" font-weight="600">зона деления</text>
  <text x="87" y="203" text-anchor="middle" font-size="11" fill="#e8c891">(меристема)</text>

  <!-- Zone 2: Root cap -->
  <rect x="62" y="188" width="52" height="30" rx="3" fill="#1a1208" stroke="#e8a070" stroke-width="1.5"/>
  <text x="87" y="208" text-anchor="middle" font-size="11" fill="#e8a070">чехлик</text>

  <!-- Labels right side of left panel -->
  <line x1="115" y1="72" x2="145" y2="72" stroke="#8b949e" stroke-width="0.7"/>
  <text x="148" y="76" font-size="11" fill="#8b949e">волоски</text>
  <line x1="115" y1="118" x2="145" y2="118" stroke="#8b949e" stroke-width="0.7"/>
  <text x="148" y="122" font-size="11" fill="#a8c5d8">тянутся</text>
  <line x1="115" y1="165" x2="145" y2="165" stroke="#8b949e" stroke-width="0.7"/>
  <text x="148" y="169" font-size="11" fill="#e8c891">делятся</text>
  <line x1="115" y1="203" x2="145" y2="203" stroke="#8b949e" stroke-width="0.7"/>
  <text x="148" y="207" font-size="11" fill="#e8a070">защита</text>

  <!-- Growth arrow -->
  <path d="M87,230 L87,248" stroke="#8cc882" stroke-width="2" marker-end="url(#ga)"/>
  <text x="87" y="262" text-anchor="middle" font-size="11" fill="#8cc882">рост вниз</text>

  <!-- Right: Apical meristem of shoot -->
  <rect x="195" y="26" width="155" height="250" rx="8" fill="#1a0a1a" stroke="#a8c5d8" stroke-width="1.5"/>
  <text x="272" y="44" text-anchor="middle" font-size="11" fill="#a8c5d8">Верхушка побега</text>

  <!-- Shoot apex -->
  <ellipse cx="272" cy="80" rx="28" ry="22" fill="#1a1a3a" stroke="#a8c5d8" stroke-width="2"/>
  <text x="272" y="83" text-anchor="middle" font-size="11" fill="#a8c5d8">апикальная</text>
  <text x="272" y="95" text-anchor="middle" font-size="11" fill="#a8c5d8">меристема</text>
  <!-- Young leaf primordia -->
  <ellipse cx="252" cy="68" rx="10" ry="6" fill="#1a2a0a" stroke="#8cc882" stroke-width="1" transform="rotate(-30,252,68)"/>
  <ellipse cx="292" cy="68" rx="10" ry="6" fill="#1a2a0a" stroke="#8cc882" stroke-width="1" transform="rotate(30,292,68)"/>

  <!-- Growing stem below -->
  <rect x="262" y="102" width="20" height="115" rx="4" fill="#1a2a1a" stroke="#8cc882" stroke-width="1.5"/>
  <!-- Nodes -->
  <ellipse cx="272" cy="130" rx="16" ry="5" fill="#1a3a1a" stroke="#8cc882" stroke-width="1.5"/>
  <ellipse cx="272" cy="170" rx="16" ry="5" fill="#1a3a1a" stroke="#8cc882" stroke-width="1.5"/>
  <ellipse cx="272" cy="210" rx="16" ry="5" fill="#1a3a1a" stroke="#8cc882" stroke-width="1.5"/>
  <!-- Leaves -->
  <ellipse cx="245" cy="133" rx="18" ry="8" fill="#1a3a1a" stroke="#8cc882" stroke-width="1" transform="rotate(-20,245,133)"/>
  <ellipse cx="299" cy="133" rx="18" ry="8" fill="#1a3a1a" stroke="#8cc882" stroke-width="1" transform="rotate(20,299,133)"/>
  <ellipse cx="245" cy="173" rx="18" ry="8" fill="#1a3a1a" stroke="#8cc882" stroke-width="1" transform="rotate(-20,245,173)"/>
  <ellipse cx="299" cy="173" rx="18" ry="8" fill="#1a3a1a" stroke="#8cc882" stroke-width="1" transform="rotate(20,299,173)"/>

  <!-- Growth arrow -->
  <path d="M272,50 L272,30" stroke="#a8c5d8" stroke-width="2" marker-end="url(#ga2)"/>
  <text x="272" y="27" text-anchor="middle" font-size="11" fill="#a8c5d8">рост вверх</text>

  <!-- Labels -->
  <text x="272" y="240" text-anchor="middle" font-size="11" fill="#8b949e">Апикальное доминирование:</text>
  <text x="272" y="253" text-anchor="middle" font-size="11" fill="#8b949e">верхушка подавляет</text>
  <text x="272" y="266" text-anchor="middle" font-size="11" fill="#8b949e">рост боковых почек</text>

  <defs>
    <marker id="ga" markerWidth="6" markerHeight="6" refX="3" refY="6" orient="auto"><path d="M0,0 L3,6 L6,0Z" fill="#8cc882"/></marker>
    <marker id="ga2" markerWidth="6" markerHeight="6" refX="3" refY="0" orient="auto"><path d="M0,6 L3,0 L6,6Z" fill="#a8c5d8"/></marker>
  </defs>
</svg>
