<svg xmlns="http://www.w3.org/2000/svg" viewBox="0 0 360 300" font-family="system-ui,sans-serif">
  <rect width="360" height="300" fill="#0d1117"/>
  <!-- Main stem -->
  <rect x="168" y="40" width="18" height="220" rx="5" fill="#1a2a1a" stroke="#8cc882" stroke-width="1.5"/>
  <!-- Nodes (узлы) -->
  <ellipse cx="177" cy="90" rx="14" ry="6" fill="#1a3a1a" stroke="#8cc882" stroke-width="2"/>
  <ellipse cx="177" cy="160" rx="14" ry="6" fill="#1a3a1a" stroke="#8cc882" stroke-width="2"/>
  <ellipse cx="177" cy="230" rx="14" ry="6" fill="#1a3a1a" stroke="#8cc882" stroke-width="2"/>
  <!-- Internodes labels -->
  <text x="195" y="130" font-size="9" fill="#8b949e">меж-</text>
  <text x="195" y="141" font-size="9" fill="#8b949e">доузлие</text>
  <!-- Apical bud -->
  <ellipse cx="177" cy="50" rx="12" ry="18" fill="#2a3a1a" stroke="#e8c891" stroke-width="2"/>
  <text x="177" y="32" text-anchor="middle" font-size="9" fill="#e8c891">верхушечная</text>
  <text x="177" y="22" text-anchor="middle" font-size="9" fill="#e8c891">почка</text>
  <!-- Axillary buds (пазушные почки) -->
  <ellipse cx="155" cy="90" rx="10" ry="7" fill="#1a2a0a" stroke="#8cc882" stroke-width="1.5"/>
  <ellipse cx="199" cy="90" rx="10" ry="7" fill="#1a2a0a" stroke="#8cc882" stroke-width="1.5"/>
  <ellipse cx="155" cy="160" rx="10" ry="7" fill="#1a2a0a" stroke="#8cc882" stroke-width="1.5"/>
  <ellipse cx="199" cy="160" rx="10" ry="7" fill="#1a2a0a" stroke="#8cc882" stroke-width="1.5"/>
  <!-- Leaves at nodes -->
  <ellipse cx="128" cy="95" rx="22" ry="10" fill="#1a3a1a" stroke="#8cc882" stroke-width="1.5" transform="rotate(-20,128,95)"/>
  <ellipse cx="226" cy="95" rx="22" ry="10" fill="#1a3a1a" stroke="#8cc882" stroke-width="1.5" transform="rotate(20,226,95)"/>
  <ellipse cx="128" cy="165" rx="22" ry="10" fill="#1a3a1a" stroke="#8cc882" stroke-width="1.5" transform="rotate(-20,128,165)"/>
  <ellipse cx="226" cy="165" rx="22" ry="10" fill="#1a3a1a" stroke="#8cc882" stroke-width="1.5" transform="rotate(20,226,165)"/>
  <!-- Leaf stalks -->
  <line x1="155" y1="90" x2="143" y2="92" stroke="#8cc882" stroke-width="2"/>
  <line x1="199" y1="90" x2="211" y2="92" stroke="#8cc882" stroke-width="2"/>
  <line x1="155" y1="160" x2="143" y2="162" stroke="#8cc882" stroke-width="2"/>
  <line x1="199" y1="160" x2="211" y2="162" stroke="#8cc882" stroke-width="2"/>
  <!-- Labels left -->
  <line x1="75" y1="90" x2="142" y2="90" stroke="#8b949e" stroke-width="0.8"/>
  <text x="72" y="94" text-anchor="end" font-size="9" fill="#8cc882">узел</text>
  <line x1="75" y1="105" x2="145" y2="92" stroke="#8b949e" stroke-width="0.8"/>
  <text x="72" y="109" text-anchor="end" font-size="9" fill="#8cc882">пазушная почка</text>
  <line x1="75" y1="120" x2="128" y2="100" stroke="#8b949e" stroke-width="0.8"/>
  <text x="72" y="124" text-anchor="end" font-size="9" fill="#8cc882">лист</text>
  <!-- Label: internode -->
  <line x1="290" y1="125" x2="210" y2="125" stroke="#8b949e" stroke-width="0.8"/>
  <text x="293" y="129" font-size="9" fill="#8b949e">междоузлие</text>
  <text x="180" y="285" text-anchor="middle" font-size="11" fill="#8b949e">Строение побега</text>
</svg>
