<svg xmlns="http://www.w3.org/2000/svg" viewBox="0 0 360 300" font-family="system-ui,sans-serif">
  <rect width="360" height="300" fill="#0d1117"/>
  <text x="180" y="16" text-anchor="middle" font-size="12" fill="#e8c891" font-weight="600">Строение устьица</text>

  <!-- Left: Open stoma -->
  <rect x="15" y="28" width="155" height="240" rx="8" fill="#0a1a0a" stroke="#8cc882" stroke-width="1.5"/>
  <text x="92" y="46" text-anchor="middle" font-size="11" fill="#8cc882">Открытое (день)</text>

  <!-- Epidermis cells around stoma -->
  <g fill="#1a2a0a" stroke="#8b949e" stroke-width="1">
    <rect x="30" y="70" width="50" height="35" rx="4"/>
    <rect x="110" y="70" width="50" height="35" rx="4"/>
    <rect x="30" y="150" width="50" height="35" rx="4"/>
    <rect x="110" y="150" width="50" height="35" rx="4"/>
    <rect x="30" y="110" width="25" height="35" rx="4"/>
    <rect x="135" y="110" width="25" height="35" rx="4"/>
  </g>

  <!-- Guard cells (замыкающие клетки) - open, crescent shaped -->
  <path d="M80,90 Q92,105 92,145 Q80,158 68,145 Q56,128 68,90 Q74,82 80,90Z" fill="#1a3a1a" stroke="#8cc882" stroke-width="2"/>
  <path d="M110,90 Q122,105 122,145 Q110,158 98,145 Q86,128 98,90 Q104,82 110,90Z" fill="#1a3a1a" stroke="#8cc882" stroke-width="2"/>

  <!-- Pore (устьичная щель) - open -->
  <ellipse cx="95" cy="118" rx="8" ry="28" fill="#0d1117" stroke="#8cc882" stroke-width="1" stroke-dasharray="3,2"/>
  <text x="92" y="122" text-anchor="middle" font-size="11" fill="#8cc882">щель</text>

  <!-- Chloroplasts in guard cells -->
  <ellipse cx="78" cy="110" rx="5" ry="3" fill="#2a5a1a" transform="rotate(-15,78,110)"/>
  <ellipse cx="78" cy="125" rx="5" ry="3" fill="#2a5a1a" transform="rotate(10,78,125)"/>
  <ellipse cx="112" cy="110" rx="5" ry="3" fill="#2a5a1a" transform="rotate(15,112,110)"/>
  <ellipse cx="112" cy="125" rx="5" ry="3" fill="#2a5a1a" transform="rotate(-10,112,125)"/>

  <!-- Gas arrows -->
  <path d="M92,55 L92,80" stroke="#a8c5d8" stroke-width="1.5" marker-end="url(#arr_down)"/>
  <text x="106" y="68" font-size="11" fill="#a8c5d8">CO₂↓</text>
  <path d="M92,165 L92,185" stroke="#8cc882" stroke-width="1.5" marker-end="url(#arr_down)"/>
  <text x="100" y="180" font-size="11" fill="#8cc882">O₂↑, H₂O↑</text>

  <!-- Labels -->
  <text x="92" y="208" text-anchor="middle" font-size="11" fill="#8b949e">Клетки набухают,</text>
  <text x="92" y="221" text-anchor="middle" font-size="11" fill="#8b949e">H₂O входит осмосом</text>
  <text x="92" y="234" text-anchor="middle" font-size="11" fill="#8b949e">→ клетки изгибаются</text>
  <text x="92" y="247" text-anchor="middle" font-size="11" fill="#8b949e">→ щель открывается</text>
  <text x="92" y="260" text-anchor="middle" font-size="11" fill="#8cc882">Свет, CO₂↓</text>

  <!-- Right: Closed stoma -->
  <rect x="190" y="28" width="155" height="240" rx="8" fill="#1a0a0a" stroke="#e8a070" stroke-width="1.5"/>
  <text x="267" y="46" text-anchor="middle" font-size="11" fill="#e8a070">Закрытое (ночь/жара)</text>

  <!-- Epidermis cells -->
  <g fill="#1a1208" stroke="#8b949e" stroke-width="1">
    <rect x="205" y="70" width="50" height="35" rx="4"/>
    <rect x="285" y="70" width="50" height="35" rx="4"/>
    <rect x="205" y="150" width="50" height="35" rx="4"/>
    <rect x="285" y="150" width="50" height="35" rx="4"/>
    <rect x="205" y="110" width="25" height="35" rx="4"/>
    <rect x="310" y="110" width="25" height="35" rx="4"/>
  </g>

  <!-- Guard cells - closed, fat ellipses touching -->
  <ellipse cx="254" cy="118" rx="15" ry="32" fill="#2a1808" stroke="#e8a070" stroke-width="2"/>
  <ellipse cx="280" cy="118" rx="15" ry="32" fill="#2a1808" stroke="#e8a070" stroke-width="2"/>

  <!-- No pore (closed) -->
  <text x="267" y="122" text-anchor="middle" font-size="11" fill="#e8a070">закрыто</text>

  <!-- No gas exchange -->
  <text x="267" y="180" text-anchor="middle" font-size="11" fill="#8b949e">газообмен = 0</text>

  <text x="267" y="208" text-anchor="middle" font-size="11" fill="#8b949e">H₂O выходит из кл.</text>
  <text x="267" y="221" text-anchor="middle" font-size="11" fill="#8b949e">→ клетки распрямл.</text>
  <text x="267" y="234" text-anchor="middle" font-size="11" fill="#8b949e">→ щель закрывается</text>
  <text x="267" y="260" text-anchor="middle" font-size="11" fill="#e8a070">Тьма, жара, засуха</text>

  <defs>
    <marker id="arr_down" markerWidth="6" markerHeight="6" refX="3" refY="6" orient="auto">
      <path d="M0,0 L3,6 L6,0Z" fill="#a8c5d8"/>
    </marker>
  </defs>
  <text x="180" y="285" text-anchor="middle" font-size="11" fill="#8b949e" textLength="340" lengthAdjust="spacing">Механизм открытия и закрытия устьица</text>
</svg>
