<svg xmlns="http://www.w3.org/2000/svg" viewBox="0 0 360 320" font-family="system-ui,sans-serif">
  <rect width="360" height="320" fill="#0d1117"/>

  <!-- Plant silhouette -->
  <!-- Roots -->
  <g stroke="#8cc882" stroke-width="2" fill="none">
    <path d="M180,280 L155,310"/>
    <path d="M180,280 L205,310"/>
    <path d="M170,295 L148,315"/>
    <path d="M190,295 L212,315"/>
    <path d="M162,305 L145,318"/>
    <path d="M198,305 L215,318"/>
  </g>
  <!-- Stem -->
  <rect x="168" y="100" width="24" height="185" rx="6" fill="#1a2a1a" stroke="#30363d" stroke-width="1"/>

  <!-- Branches and leaves -->
  <path d="M180,100 C150,80 130,60 120,40" stroke="#8cc882" stroke-width="8" fill="none" stroke-linecap="round"/>
  <path d="M180,100 C210,80 230,60 240,40" stroke="#8cc882" stroke-width="8" fill="none" stroke-linecap="round"/>
  <path d="M175,140 C145,125 125,110 108,100" stroke="#8cc882" stroke-width="6" fill="none" stroke-linecap="round"/>
  <path d="M185,140 C215,125 235,110 252,100" stroke="#8cc882" stroke-width="6" fill="none" stroke-linecap="round"/>

  <!-- Leaf shapes -->
  <ellipse cx="113" cy="42" rx="22" ry="14" fill="#1a4a1a" stroke="#8cc882" stroke-width="1.5" transform="rotate(-30,113,42)"/>
  <ellipse cx="247" cy="42" rx="22" ry="14" fill="#1a4a1a" stroke="#8cc882" stroke-width="1.5" transform="rotate(30,247,42)"/>
  <ellipse cx="100" cy="102" rx="18" ry="12" fill="#1a4a1a" stroke="#8cc882" stroke-width="1.5" transform="rotate(-20,100,102)"/>
  <ellipse cx="260" cy="102" rx="18" ry="12" fill="#1a4a1a" stroke="#8cc882" stroke-width="1.5" transform="rotate(20,260,102)"/>

  <!-- Xylem channel (ascending, left side of stem) -->
  <rect x="168" y="105" width="10" height="180" rx="3" fill="#1a1208" stroke="#e8a070" stroke-width="1.5"/>
  <!-- Ascending arrows -->
  <g stroke="#e8a070" stroke-width="1.5" fill="none">
    <path d="M173,240 L173,200" marker-end="url(#up_arr)"/>
    <path d="M173,200 L173,160" marker-end="url(#up_arr)"/>
    <path d="M173,160 L173,120" marker-end="url(#up_arr)"/>
  </g>

  <!-- Phloem channel (descending, right side of stem) -->
  <rect x="182" y="105" width="10" height="180" rx="3" fill="#112211" stroke="#a8c5d8" stroke-width="1.5"/>
  <!-- Descending arrows -->
  <g stroke="#a8c5d8" stroke-width="1.5" fill="none">
    <path d="M187,120 L187,160" marker-end="url(#dn_arr)"/>
    <path d="M187,160 L187,200" marker-end="url(#dn_arr)"/>
    <path d="M187,200 L187,240" marker-end="url(#dn_arr)"/>
  </g>

  <!-- Labels -->
  <!-- Ascending -->
  <rect x="8" y="158" width="125" height="44" rx="5" fill="#1a1208" stroke="#e8a070" stroke-width="1"/>
  <text x="70" y="175" text-anchor="middle" font-size="11" fill="#e8a070" font-weight="600">Восходящий ток ↑</text>
  <text x="70" y="191" text-anchor="middle" font-size="11" fill="#8b949e">H₂O + мин. соли</text>
  <line x1="133" y1="180" x2="168" y2="180" stroke="#e8a070" stroke-width="1" stroke-dasharray="3,2"/>

  <!-- Descending -->
  <rect x="227" y="158" width="125" height="44" rx="5" fill="#112211" stroke="#a8c5d8" stroke-width="1"/>
  <text x="289" y="175" text-anchor="middle" font-size="11" fill="#a8c5d8" font-weight="600">Нисходящий ток ↓</text>
  <text x="289" y="191" text-anchor="middle" font-size="11" fill="#8b949e">органика (сахара)</text>
  <line x1="192" y1="180" x2="227" y2="180" stroke="#a8c5d8" stroke-width="1" stroke-dasharray="3,2"/>

  <!-- Root absorption -->
  <text x="8" y="298" font-size="11" fill="#8b949e">почва: H₂O+соли</text>
  <line x1="94" y1="296" x2="155" y2="285" stroke="#e8a070" stroke-width="1" stroke-dasharray="3,2"/>

  <!-- Leaf transpiration — text-anchor="end" so it doesn't clip right edge -->
  <text x="352" y="42" text-anchor="end" font-size="11" fill="#8b949e">транспирация</text>
  <line x1="352" y1="44" x2="258" y2="46" stroke="#a8c5d8" stroke-width="1" stroke-dasharray="3,2"/>

  <!-- Xylem / Phloem tags -->
  <text x="155" y="145" text-anchor="end" font-size="11" fill="#e8a070">ксилема</text>
  <text x="203" y="145" font-size="11" fill="#a8c5d8">флоэма</text>

  <defs>
    <marker id="up_arr" markerWidth="6" markerHeight="6" refX="3" refY="6" orient="auto">
      <path d="M0,6 L3,0 L6,6Z" fill="#e8a070"/>
    </marker>
    <marker id="dn_arr" markerWidth="6" markerHeight="6" refX="3" refY="0" orient="auto">
      <path d="M0,0 L3,6 L6,0Z" fill="#a8c5d8"/>
    </marker>
  </defs>

  <text x="180" y="315" text-anchor="middle" font-size="11" fill="#8b949e">Транспорт веществ в растении</text>
</svg>
