<svg xmlns="http://www.w3.org/2000/svg" viewBox="0 0 360 320" font-family="system-ui,sans-serif">
  <rect width="360" height="320" fill="#0d1117"/>

  <!-- Center: pith -->
  <circle cx="160" cy="155" r="30" fill="#1e1a10" stroke="#e8c891" stroke-width="1.5"/>
  <text x="160" y="152" text-anchor="middle" font-size="9"  fill="#e8c891">серд-</text>
  <text x="160" y="164" text-anchor="middle" font-size="9"  fill="#e8c891">цевина</text>

  <!-- Wood (xylem) -->
  <circle cx="160" cy="155" r="65" fill="#1a1208" stroke="#e8a070" stroke-width="1.5"/>
  <circle cx="160" cy="155" r="30" fill="#1e1a10"/><!-- re-punch center -->

  <!-- Annual rings hint lines -->
  <circle cx="160" cy="155" r="45" fill="none" stroke="#30363d" stroke-width="0.8" stroke-dasharray="3,3"/>

  <!-- Cambium ring -->
  <circle cx="160" cy="155" r="67" fill="none" stroke="#8cc882" stroke-width="3"/>

  <!-- Phloem (луб) -->
  <circle cx="160" cy="155" r="85"  fill="#112211"/>
  <circle cx="160" cy="155" r="67"  fill="#1a1208"/><!-- re-punch wood -->

  <!-- Cork (пробка) -->
  <circle cx="160" cy="155" r="100" fill="#1e1408"/>
  <circle cx="160" cy="155" r="85"  fill="#112211"/>

  <!-- Outer ring (border) -->
  <circle cx="160" cy="155" r="100" fill="none" stroke="#8b949e" stroke-width="2"/>

  <!-- Lenticels dots on cork -->
  <g fill="#a8c5d8" opacity="0.8">
    <ellipse cx="160" cy="55"  rx="5" ry="3" transform="rotate(0,160,155)"/>
    <ellipse cx="160" cy="55"  rx="5" ry="3" transform="rotate(60,160,155)"/>
    <ellipse cx="160" cy="55"  rx="5" ry="3" transform="rotate(120,160,155)"/>
    <ellipse cx="160" cy="55"  rx="5" ry="3" transform="rotate(180,160,155)"/>
    <ellipse cx="160" cy="55"  rx="5" ry="3" transform="rotate(240,160,155)"/>
    <ellipse cx="160" cy="55"  rx="5" ry="3" transform="rotate(300,160,155)"/>
  </g>

  <!-- Labels -->
  <!-- Cork -->
  <line x1="260" y1="95"  x2="247" y2="110" stroke="#8b949e" stroke-width="1"/>
  <text x="262" y="93"  font-size="11" fill="#e8c891">пробка</text>
  <text x="262" y="105" font-size="9"  fill="#8b949e">(кора)</text>

  <!-- Phloem -->
  <line x1="260" y1="130" x2="244" y2="138" stroke="#8b949e" stroke-width="1"/>
  <text x="262" y="128" font-size="11" fill="#a8c5d8">луб</text>
  <text x="262" y="140" font-size="9"  fill="#8b949e">(флоэма)</text>

  <!-- Cambium -->
  <line x1="260" y1="155" x2="227" y2="155" stroke="#8cc882" stroke-width="1"/>
  <text x="262" y="153" font-size="11" fill="#8cc882">камбий</text>

  <!-- Wood -->
  <line x1="260" y1="178" x2="222" y2="172" stroke="#8b949e" stroke-width="1"/>
  <text x="262" y="176" font-size="11" fill="#e8a070">древесина</text>
  <text x="262" y="188" font-size="9"  fill="#8b949e">(ксилема)</text>

  <!-- Pith -->
  <line x1="260" y1="210" x2="190" y2="197" stroke="#8b949e" stroke-width="1"/>
  <text x="262" y="208" font-size="11" fill="#e8c891">сердцевина</text>

  <!-- Lenticel label -->
  <line x1="50" y1="80" x2="108" y2="98" stroke="#a8c5d8" stroke-width="1"/>
  <text x="10" y="78" font-size="10" fill="#a8c5d8">чечевичка</text>

  <!-- Annual rings label -->
  <line x1="50" y1="155" x2="115" y2="155" stroke="#30363d" stroke-width="1"/>
  <text x="5"  y="145" font-size="9" fill="#8b949e">годичные</text>
  <text x="5"  y="157" font-size="9" fill="#8b949e">кольца</text>

  <text x="180" y="312" text-anchor="middle" font-size="11" fill="#8b949e">Поперечный срез деревянистого стебля</text>
</svg>
