<svg xmlns="http://www.w3.org/2000/svg" viewBox="0 0 360 280" font-family="system-ui,sans-serif">
  <rect width="360" height="280" fill="#0d1117"/>

  <!-- Cross-section block shifted right to x=90 to give left labels room -->
  <!-- Upper epidermis -->
  <rect x="90" y="45" width="210" height="18" rx="4" fill="#1a2a1a" stroke="#8cc882" stroke-width="1.5"/>
  <text x="195" y="58" text-anchor="middle" font-size="11" fill="#8cc882">Верхняя эпидерма</text>

  <!-- Palisade mesophyll -->
  <rect x="90" y="63" width="210" height="58" fill="#0f2a0f" stroke="#30363d" stroke-width="1"/>
  <g fill="#1a4a1a" stroke="#8cc882" stroke-width="0.8">
    <rect x="96"  y="67" width="16" height="48" rx="2"/>
    <rect x="115" y="67" width="16" height="48" rx="2"/>
    <rect x="134" y="67" width="16" height="48" rx="2"/>
    <rect x="153" y="67" width="16" height="48" rx="2"/>
    <rect x="172" y="67" width="16" height="48" rx="2"/>
    <rect x="191" y="67" width="16" height="48" rx="2"/>
    <rect x="210" y="67" width="16" height="48" rx="2"/>
    <rect x="229" y="67" width="16" height="48" rx="2"/>
    <rect x="248" y="67" width="16" height="48" rx="2"/>
    <rect x="267" y="67" width="16" height="48" rx="2"/>
  </g>
  <g fill="#8cc882" opacity="0.6">
    <circle cx="104" cy="77" r="3"/> <circle cx="104" cy="91" r="3"/> <circle cx="104" cy="105" r="3"/>
    <circle cx="123" cy="80" r="3"/> <circle cx="123" cy="94" r="3"/> <circle cx="123" cy="107" r="3"/>
    <circle cx="142" cy="77" r="3"/> <circle cx="142" cy="91" r="3"/> <circle cx="142" cy="105" r="3"/>
    <circle cx="161" cy="80" r="3"/> <circle cx="161" cy="94" r="3"/> <circle cx="161" cy="107" r="3"/>
    <circle cx="180" cy="77" r="3"/> <circle cx="180" cy="91" r="3"/> <circle cx="180" cy="105" r="3"/>
    <circle cx="199" cy="80" r="3"/> <circle cx="199" cy="94" r="3"/> <circle cx="199" cy="107" r="3"/>
    <circle cx="218" cy="77" r="3"/> <circle cx="218" cy="91" r="3"/> <circle cx="218" cy="105" r="3"/>
    <circle cx="237" cy="80" r="3"/> <circle cx="237" cy="94" r="3"/> <circle cx="237" cy="107" r="3"/>
    <circle cx="256" cy="77" r="3"/> <circle cx="256" cy="91" r="3"/> <circle cx="256" cy="105" r="3"/>
    <circle cx="275" cy="80" r="3"/> <circle cx="275" cy="94" r="3"/> <circle cx="275" cy="107" r="3"/>
  </g>

  <!-- Vascular bundle (жилка) -->
  <ellipse cx="195" cy="148" rx="25" ry="12" fill="#1e2a0e" stroke="#e8c891" stroke-width="1.5"/>
  <ellipse cx="195" cy="143" rx="12" ry="6" fill="#1a1208" stroke="#e8a070" stroke-width="1"/>
  <text x="195" y="146" text-anchor="middle" font-size="11" fill="#e8a070">кс</text>
  <ellipse cx="195" cy="155" rx="10" ry="5" fill="#112211" stroke="#a8c5d8" stroke-width="1"/>
  <text x="195" y="158" text-anchor="middle" font-size="11" fill="#a8c5d8">фл</text>

  <!-- Spongy mesophyll -->
  <rect x="90" y="121" width="210" height="50" fill="#0a1e0a" stroke="#30363d" stroke-width="1"/>
  <g fill="#112211" stroke="#8cc882" stroke-width="0.8" opacity="0.7">
    <ellipse cx="112" cy="143" rx="14" ry="9"/>
    <ellipse cx="148" cy="137" rx="12" ry="8"/>
    <ellipse cx="172" cy="148" rx="13" ry="8"/>
    <ellipse cx="228" cy="139" rx="13" ry="9"/>
    <ellipse cx="262" cy="146" rx="14" ry="8"/>
    <ellipse cx="288" cy="138" rx="12" ry="9"/>
    <ellipse cx="116" cy="160" rx="11" ry="7"/>
    <ellipse cx="155" cy="163" rx="13" ry="7"/>
    <ellipse cx="238" cy="161" rx="12" ry="7"/>
    <ellipse cx="275" cy="158" rx="13" ry="8"/>
  </g>
  <text x="195" y="162" text-anchor="middle" font-size="11" fill="#8b949e">межклетники</text>

  <!-- Lower epidermis with stomata -->
  <rect x="90" y="171" width="210" height="18" rx="4" fill="#1a2a1a" stroke="#a8c5d8" stroke-width="1.5"/>
  <ellipse cx="125" cy="180" rx="6" ry="3" fill="#0d1117" stroke="#a8c5d8" stroke-width="1"/>
  <ellipse cx="195" cy="180" rx="6" ry="3" fill="#0d1117" stroke="#a8c5d8" stroke-width="1"/>
  <ellipse cx="265" cy="180" rx="6" ry="3" fill="#0d1117" stroke="#a8c5d8" stroke-width="1"/>
  <text x="195" y="184" text-anchor="middle" font-size="11" fill="#a8c5d8" textLength="186" lengthAdjust="spacing">Нижняя эпидерма (устьица)</text>

  <!-- LEFT labels — text-anchor="start" at x=5, leader to x=90 -->
  <!-- Palisade -->
  <line x1="78" y1="92" x2="90" y2="92" stroke="#8b949e" stroke-width="1"/>
  <text x="5"  y="85"  text-anchor="start" font-size="11" fill="#8cc882">пализадный</text>
  <text x="5"  y="98"  text-anchor="start" font-size="11" fill="#8cc882">мезофилл</text>

  <!-- Spongy -->
  <line x1="78" y1="146" x2="90" y2="146" stroke="#8b949e" stroke-width="1"/>
  <text x="5"  y="139" text-anchor="start" font-size="11" fill="#e8c891">губчатый</text>
  <text x="5"  y="152" text-anchor="start" font-size="11" fill="#e8c891">мезофилл</text>

  <!-- RIGHT labels — text-anchor="start" at x=307 (cross-section right edge 300 + 7) -->
  <line x1="220" y1="143" x2="302" y2="130" stroke="#e8c891" stroke-width="1"/>
  <text x="304" y="128" font-size="11" fill="#e8c891" text-anchor="start">жилка</text>
  <text x="304" y="141" font-size="11" fill="#8b949e" text-anchor="start">(кс+фл)</text>

  <line x1="271" y1="180" x2="302" y2="196" stroke="#a8c5d8" stroke-width="1"/>
  <text x="304" y="196" font-size="11" fill="#a8c5d8" text-anchor="start">устьице</text>

  <text x="195" y="218" text-anchor="middle" font-size="11" fill="#8b949e">Поперечный срез листа</text>

  <!-- CO2 / O2 arrows -->
  <text x="5"   y="237" font-size="11" fill="#a8c5d8">CO₂ →</text>
  <text x="310" y="237" font-size="11" fill="#8cc882">← O₂</text>
</svg>
