<svg xmlns="http://www.w3.org/2000/svg" viewBox="0 0 360 300" font-family="system-ui,sans-serif">
  <rect width="360" height="300" fill="#0d1117"/>
  <text x="180" y="20" text-anchor="middle" font-size="12" fill="#e8c891" font-weight="600">Значение фотосинтеза</text>

  <!-- Central leaf -->
  <ellipse cx="180" cy="130" rx="65" ry="42" fill="#1a3a1a" stroke="#8cc882" stroke-width="2.5"/>
  <!-- Leaf vein -->
  <path d="M125,130 Q155,115 180,130 Q205,145 235,130" stroke="#8cc882" stroke-width="2" fill="none" opacity="0.6"/>
  <line x1="180" y1="90" x2="180" y2="170" stroke="#8cc882" stroke-width="1.5" opacity="0.6"/>
  <!-- Chloroplast symbol -->
  <ellipse cx="160" cy="125" rx="10" ry="7" fill="#2a5a1a" stroke="#8cc882" stroke-width="1"/>
  <ellipse cx="185" cy="138" rx="10" ry="7" fill="#2a5a1a" stroke="#8cc882" stroke-width="1"/>
  <ellipse cx="170" cy="143" rx="10" ry="7" fill="#2a5a1a" stroke="#8cc882" stroke-width="1"/>
  <text x="180" y="134" text-anchor="middle" font-size="11" fill="#8cc882" font-weight="600">хлоропласт</text>
  <text x="180" y="147" text-anchor="middle" font-size="11" fill="#8cc882">хлорофилл</text>

  <!-- Sun (energy source) -->
  <circle cx="180" cy="42" r="20" fill="#3a2a08" stroke="#e8c891" stroke-width="2"/>
  <text x="180" y="47" text-anchor="middle" font-size="14">☀</text>
  <!-- Sun rays -->
  <g stroke="#e8c891" stroke-width="1.5" opacity="0.6">
    <line x1="180" y1="18" x2="180" y2="10"/>
    <line x1="200" y1="25" x2="208" y2="17"/>
    <line x1="160" y1="25" x2="152" y2="17"/>
  </g>
  <!-- Energy arrow to leaf -->
  <path d="M180,62 L180,88" stroke="#e8c891" stroke-width="2" marker-end="url(#ea)"/>
  <text x="192" y="78" font-size="11" fill="#e8c891">свет</text>

  <!-- CO2 input (left) -->
  <rect x="8" y="105" width="95" height="52" rx="6" fill="#1a1208" stroke="#e8c891" stroke-width="1.5"/>
  <text x="55" y="124" text-anchor="middle" font-size="11" fill="#e8c891" font-weight="700">6 CO₂</text>
  <text x="55" y="138" text-anchor="middle" font-size="11" fill="#8b949e">углекислый газ</text>
  <text x="55" y="151" text-anchor="middle" font-size="11" fill="#8b949e">из воздуха</text>
  <path d="M103,130 L115,130" stroke="#e8c891" stroke-width="2" marker-end="url(#ea)"/>

  <!-- H2O input (left-bottom) -->
  <rect x="8" y="165" width="95" height="52" rx="6" fill="#0a1a2a" stroke="#a8c5d8" stroke-width="1.5"/>
  <text x="55" y="184" text-anchor="middle" font-size="11" fill="#a8c5d8" font-weight="700">6 H₂O</text>
  <text x="55" y="198" text-anchor="middle" font-size="11" fill="#8b949e">вода</text>
  <text x="55" y="211" text-anchor="middle" font-size="11" fill="#8b949e">из почвы</text>
  <path d="M103,175 L115,168" stroke="#a8c5d8" stroke-width="2" marker-end="url(#ea2)"/>

  <!-- Glucose output (right) -->
  <rect x="257" y="105" width="95" height="52" rx="6" fill="#0f2a0f" stroke="#8cc882" stroke-width="1.5"/>
  <text x="305" y="124" text-anchor="middle" font-size="11" fill="#8cc882" font-weight="700">C₆H₁₂O₆</text>
  <text x="305" y="138" text-anchor="middle" font-size="11" fill="#8b949e">глюкоза</text>
  <text x="305" y="151" text-anchor="middle" font-size="11" fill="#8b949e">орг. вещество</text>
  <path d="M245,130 L257,130" stroke="#8cc882" stroke-width="2" marker-end="url(#ea3)"/>

  <!-- O2 output (right-bottom) -->
  <rect x="257" y="165" width="95" height="52" rx="6" fill="#0a2a0a" stroke="#8cc882" stroke-width="1.5"/>
  <text x="305" y="184" text-anchor="middle" font-size="11" fill="#8cc882" font-weight="700">6 O₂</text>
  <text x="305" y="198" text-anchor="middle" font-size="11" fill="#8b949e">кислород</text>
  <text x="305" y="211" text-anchor="middle" font-size="11" fill="#8b949e">через устьица</text>
  <path d="M245,168 L257,175" stroke="#8cc882" stroke-width="2" marker-end="url(#ea3)"/>

  <!-- Summary equation -->
  <rect x="20" y="232" width="320" height="48" rx="8" fill="#111820" stroke="#e8c891" stroke-width="1.5"/>
  <text x="180" y="250" text-anchor="middle" font-size="11" fill="#8b949e">6CO₂ + 6H₂O</text>
  <text x="180" y="270" text-anchor="middle" font-size="11" fill="#e8c891" font-weight="600">─свет+хлорофилл─→ C₆H₁₂O₆ + 6O₂</text>

  <defs>
    <marker id="ea" markerWidth="6" markerHeight="6" refX="6" refY="3" orient="auto"><path d="M0,0 L6,3 L0,6Z" fill="#e8c891"/></marker>
    <marker id="ea2" markerWidth="6" markerHeight="6" refX="6" refY="3" orient="auto"><path d="M0,0 L6,3 L0,6Z" fill="#a8c5d8"/></marker>
    <marker id="ea3" markerWidth="6" markerHeight="6" refX="6" refY="3" orient="auto"><path d="M0,0 L6,3 L0,6Z" fill="#8cc882"/></marker>
  </defs>
</svg>
