<svg xmlns="http://www.w3.org/2000/svg" viewBox="0 0 360 280" font-family="system-ui,sans-serif">
  <rect width="360" height="280" fill="#0d1117"/>

  <!-- Leaf silhouette -->
  <path d="M180,20 C240,30 300,80 290,150 C280,200 220,230 180,240 C140,230 80,200 70,150 C60,80 120,30 180,20Z"
        fill="#0f2a0f" stroke="#8cc882" stroke-width="2"/>
  <!-- Leaf vein -->
  <path d="M180,30 L180,230" stroke="#1a4a1a" stroke-width="3"/>
  <path d="M180,80  L130,130" stroke="#1a4a1a" stroke-width="1.5"/>
  <path d="M180,110 L120,150" stroke="#1a4a1a" stroke-width="1.5"/>
  <path d="M180,80  L230,130" stroke="#1a4a1a" stroke-width="1.5"/>
  <path d="M180,110 L240,150" stroke="#1a4a1a" stroke-width="1.5"/>

  <!-- Sun -->
  <circle cx="50" cy="45" r="25" fill="#3d3520" stroke="#e8c891" stroke-width="2"/>
  <text x="50" y="42" text-anchor="middle" font-size="16" fill="#e8c891">☀</text>
  <text x="50" y="56" text-anchor="middle" font-size="8"  fill="#e8c891">свет</text>
  <!-- Light rays to leaf -->
  <line x1="72" y1="55" x2="140" y2="90" stroke="#e8c891" stroke-width="1.5" stroke-dasharray="5,3" opacity="0.7"/>
  <line x1="75" y1="45" x2="145" y2="70" stroke="#e8c891" stroke-width="1" stroke-dasharray="5,3" opacity="0.5"/>

  <!-- CO2 input -->
  <text x="30" y="170" font-size="13" fill="#a8c5d8" font-weight="600">CO₂</text>
  <line x1="75" y1="168" x2="110" y2="155" stroke="#a8c5d8" stroke-width="1.5" marker-end="url(#arr)"/>
  <text x="28" y="183" font-size="9" fill="#8b949e">из воздуха</text>

  <!-- H2O input -->
  <text x="28" y="210" font-size="13" fill="#a8c5d8" font-weight="600">H₂O</text>
  <line x1="75" y1="207" x2="125" y2="195" stroke="#a8c5d8" stroke-width="1.5" marker-end="url(#arr)"/>
  <text x="25" y="223" font-size="9" fill="#8b949e">из почвы</text>

  <!-- O2 output -->
  <text x="295" y="115" font-size="13" fill="#8cc882" font-weight="600">O₂</text>
  <line x1="253" y1="115" x2="290" y2="112" stroke="#8cc882" stroke-width="1.5" marker-end="url(#arr2)"/>
  <text x="290" y="128" font-size="9" fill="#8b949e">в воздух</text>

  <!-- Glucose output -->
  <text x="292" y="165" font-size="10" fill="#e8c891" font-weight="600">глюкоза</text>
  <line x1="250" y1="158" x2="288" y2="158" stroke="#e8c891" stroke-width="1.5" marker-end="url(#arr3)"/>
  <text x="290" y="177" font-size="9" fill="#8b949e">органика</text>

  <!-- Central formula -->
  <rect x="115" y="118" width="130" height="36" rx="6" fill="#0d1a0d" stroke="#8cc882" stroke-width="1" opacity="0.9"/>
  <text x="180" y="133" text-anchor="middle" font-size="9" fill="#8b949e">6CO₂ + 6H₂O + свет</text>
  <text x="180" y="147" text-anchor="middle" font-size="9" fill="#8cc882">→ C₆H₁₂O₆ + 6O₂</text>

  <!-- Chloroplast label -->
  <text x="180" y="200" text-anchor="middle" font-size="10" fill="#8cc882">хлоропласт</text>

  <!-- Arrowhead defs -->
  <defs>
    <marker id="arr" markerWidth="6" markerHeight="6" refX="6" refY="3" orient="auto">
      <path d="M0,0 L6,3 L0,6Z" fill="#a8c5d8"/>
    </marker>
    <marker id="arr2" markerWidth="6" markerHeight="6" refX="6" refY="3" orient="auto">
      <path d="M0,0 L6,3 L0,6Z" fill="#8cc882"/>
    </marker>
    <marker id="arr3" markerWidth="6" markerHeight="6" refX="6" refY="3" orient="auto">
      <path d="M0,0 L6,3 L0,6Z" fill="#e8c891"/>
    </marker>
  </defs>

  <text x="180" y="272" text-anchor="middle" font-size="11" fill="#8b949e">Фотосинтез в листе</text>
</svg>
