<svg xmlns="http://www.w3.org/2000/svg" viewBox="0 0 360 300" font-family="system-ui,sans-serif">
  <rect width="360" height="300" fill="#0d1117"/>

  <!-- Cell wall -->
  <rect x="30" y="20" width="300" height="260" rx="40" fill="none" stroke="#8cc882" stroke-width="8"/>
  <!-- Cell membrane -->
  <rect x="40" y="30" width="280" height="240" rx="34" fill="none" stroke="#a8c5d8" stroke-width="2" stroke-dasharray="6,3"/>
  <!-- Cytoplasm fill -->
  <rect x="42" y="32" width="276" height="236" rx="32" fill="#0f1f17" opacity="0.6"/>

  <!-- клеточная стенка — centred top, leader up to wall -->
  <line x1="165" y1="74" x2="165" y2="28" stroke="#8cc882" stroke-width="1"/>
  <text x="165" y="86" text-anchor="middle" font-size="11" fill="#8cc882">клеточная стенка</text>

  <!-- Vacuole -->
  <ellipse cx="148" cy="172" rx="88" ry="86" fill="#1a3a4a" stroke="#a8c5d8" stroke-width="2"/>
  <text x="148" y="167" text-anchor="middle" font-size="11" fill="#a8c5d8">вакуоль</text>
  <text x="148" y="182" text-anchor="middle" font-size="11" fill="#8b949e">клеточный сок</text>

  <!-- Nucleus -->
  <ellipse cx="265" cy="115" rx="42" ry="32" fill="#21262d" stroke="#e8c891" stroke-width="2"/>
  <ellipse cx="265" cy="113" rx="20" ry="15" fill="#3d3520" stroke="#e8c891" stroke-width="1.5"/>
  <text x="265" y="110" text-anchor="middle" font-size="11" fill="#e8c891">ядро</text>
  <!-- ядрышко — label outside nucleus below it -->
  <line x1="265" y1="147" x2="265" y2="157" stroke="#8b949e" stroke-width="1"/>
  <text x="265" y="168" text-anchor="middle" font-size="11" fill="#8b949e">ядрышко</text>

  <!-- Chloroplasts -->
  <ellipse cx="292" cy="192" rx="22" ry="13" fill="#1a4a1a" stroke="#8cc882" stroke-width="1.5"/>
  <ellipse cx="258" cy="235" rx="22" ry="13" fill="#1a4a1a" stroke="#8cc882" stroke-width="1.5"/>
  <ellipse cx="302" cy="252" rx="22" ry="13" fill="#1a4a1a" stroke="#8cc882" stroke-width="1.5"/>
  <!-- хлоропласт label — right of cluster, horizontal -->
  <line x1="314" y1="192" x2="326" y2="192" stroke="#8cc882" stroke-width="1"/>
  <text x="328" y="196" text-anchor="start" font-size="11" fill="#8cc882">хлоро-</text>
  <text x="328" y="210" text-anchor="start" font-size="11" fill="#8cc882">пласт</text>

  <!-- Mitochondria -->
  <ellipse cx="72" cy="122" rx="18" ry="10" fill="#3a1a0a" stroke="#e8a070" stroke-width="1.5"/>
  <ellipse cx="72" cy="245" rx="18" ry="10" fill="#3a1a0a" stroke="#e8a070" stroke-width="1.5"/>
  <!-- митохондрия — label above, inside left side -->
  <line x1="72" y1="112" x2="72" y2="102" stroke="#e8a070" stroke-width="1"/>
  <text x="72" y="97" text-anchor="middle" font-size="11" fill="#e8a070">митохондрия</text>

  <!-- Title -->
  <text x="180" y="295" text-anchor="middle" font-size="11" fill="#8b949e">Растительная клетка</text>
</svg>
