<svg xmlns="http://www.w3.org/2000/svg" viewBox="0 0 360 300" font-family="system-ui,sans-serif">
  <rect width="360" height="300" fill="#0d1117"/>
  <text x="180" y="18" text-anchor="middle" font-size="12" fill="#e8c891" font-weight="600">Ткани растений</text>

  <!-- Row 1, 3 panels: x=8 w=108 | x=126 w=108 | x=244 w=108 -->

  <!-- 1. Образовательная -->
  <rect x="8" y="28" width="108" height="96" rx="6" fill="#0f1a0f" stroke="#8cc882" stroke-width="1.5"/>
  <text x="62" y="44" text-anchor="middle" font-size="11" fill="#8cc882" font-weight="600">Образователь-</text>
  <text x="62" y="57" text-anchor="middle" font-size="11" fill="#8cc882" font-weight="600">ная</text>
  <g fill="#1a3a1a" stroke="#8cc882" stroke-width="0.8">
    <rect x="18" y="62" width="13" height="13" rx="1"/><rect x="33" y="62" width="13" height="13" rx="1"/>
    <rect x="48" y="62" width="13" height="13" rx="1"/><rect x="63" y="62" width="13" height="13" rx="1"/>
    <rect x="18" y="77" width="13" height="13" rx="1"/><rect x="33" y="77" width="13" height="13" rx="1"/>
    <rect x="48" y="77" width="13" height="13" rx="1"/><rect x="63" y="77" width="13" height="13" rx="1"/>
  </g>
  <text x="62" y="106" text-anchor="middle" font-size="11" fill="#8b949e">кончик корня,</text>
  <text x="62" y="119" text-anchor="middle" font-size="11" fill="#8b949e">камбий</text>

  <!-- 2. Покровная -->
  <rect x="126" y="28" width="108" height="96" rx="6" fill="#1a1208" stroke="#e8c891" stroke-width="1.5"/>
  <text x="180" y="44" text-anchor="middle" font-size="11" fill="#e8c891" font-weight="600">Покровная</text>
  <g fill="#2a1808" stroke="#e8c891" stroke-width="0.8">
    <rect x="136" y="52" width="88" height="10" rx="1"/>
    <rect x="136" y="64" width="88" height="8" rx="1"/>
  </g>
  <ellipse cx="168" cy="83" rx="8" ry="5" fill="#0d1117" stroke="#8cc882" stroke-width="1"/>
  <text x="168" y="86" text-anchor="middle" font-size="10" fill="#8cc882">уст.</text>
  <ellipse cx="198" cy="83" rx="8" ry="5" fill="#0d1117" stroke="#8cc882" stroke-width="1"/>
  <text x="198" y="86" text-anchor="middle" font-size="10" fill="#8cc882">уст.</text>
  <text x="180" y="106" text-anchor="middle" font-size="11" fill="#8b949e">эпидермис,</text>
  <text x="180" y="119" text-anchor="middle" font-size="11" fill="#8b949e">пробка</text>

  <!-- 3. Механическая -->
  <rect x="244" y="28" width="108" height="96" rx="6" fill="#1a1a08" stroke="#a8c5d8" stroke-width="1.5"/>
  <text x="298" y="44" text-anchor="middle" font-size="11" fill="#a8c5d8" font-weight="600">Механическая</text>
  <g fill="#1a1a2a" stroke="#a8c5d8" stroke-width="1">
    <rect x="256" y="52" width="10" height="54" rx="2"/>
    <rect x="270" y="52" width="10" height="54" rx="2"/>
    <rect x="284" y="52" width="10" height="54" rx="2"/>
    <rect x="298" y="52" width="10" height="54" rx="2"/>
    <rect x="312" y="52" width="10" height="54" rx="2"/>
    <rect x="326" y="52" width="10" height="54" rx="2"/>
  </g>
  <text x="298" y="117" text-anchor="middle" font-size="11" fill="#8b949e" textLength="104" lengthAdjust="spacing">волокна, склереиды</text>

  <!-- Row 2, 3 panels: same x, y=136, height=104 -->

  <!-- 4. Проводящая -->
  <rect x="8" y="136" width="108" height="104" rx="6" fill="#1a0f08" stroke="#e8a070" stroke-width="1.5"/>
  <text x="62" y="152" text-anchor="middle" font-size="11" fill="#e8a070" font-weight="600">Проводящая</text>
  <rect x="20" y="158" width="18" height="52" rx="3" fill="#2a1808" stroke="#e8a070" stroke-width="1"/>
  <text x="29" y="218" text-anchor="middle" font-size="11" fill="#e8a070">кс.</text>
  <rect x="44" y="158" width="18" height="52" rx="3" fill="#0a1a2a" stroke="#a8c5d8" stroke-width="1"/>
  <text x="53" y="218" text-anchor="middle" font-size="11" fill="#a8c5d8">фл.</text>
  <text x="62" y="229" text-anchor="middle" font-size="11" fill="#8b949e">сосуды,</text>
  <text x="62" y="242" text-anchor="middle" font-size="11" fill="#8b949e" textLength="100" lengthAdjust="spacing">ситовидные тр.</text>

  <!-- 5. Основная -->
  <rect x="126" y="136" width="108" height="104" rx="6" fill="#0a1a0a" stroke="#8cc882" stroke-width="1.5"/>
  <text x="180" y="152" text-anchor="middle" font-size="11" fill="#8cc882" font-weight="600">Основная</text>
  <circle cx="155" cy="178" r="14" fill="#0f2a0f" stroke="#8cc882" stroke-width="1"/>
  <circle cx="151" cy="175" r="3" fill="#1a4a1a"/>
  <circle cx="158" cy="181" r="3" fill="#1a4a1a"/>
  <circle cx="203" cy="178" r="14" fill="#0f2a0f" stroke="#8cc882" stroke-width="1"/>
  <circle cx="199" cy="175" r="3" fill="#1a4a1a"/>
  <circle cx="206" cy="181" r="3" fill="#1a4a1a"/>
  <text x="180" y="207" text-anchor="middle" font-size="11" fill="#8b949e">паренхима,</text>
  <text x="180" y="220" text-anchor="middle" font-size="11" fill="#8b949e">хлоропласты</text>

  <!-- 6. Выделительная -->
  <rect x="244" y="136" width="108" height="104" rx="6" fill="#1a0a1a" stroke="#a8c5d8" stroke-width="1.5"/>
  <text x="298" y="152" text-anchor="middle" font-size="11" fill="#a8c5d8" font-weight="600">Выделительная</text>
  <ellipse cx="298" cy="183" rx="22" ry="20" fill="#1a1a2a" stroke="#a8c5d8" stroke-width="1.5"/>
  <circle cx="292" cy="181" r="4" fill="#2a0a2a" opacity="0.8"/>
  <circle cx="304" cy="185" r="3" fill="#2a0a2a" opacity="0.8"/>
  <circle cx="296" cy="189" r="3" fill="#2a0a2a" opacity="0.8"/>
  <text x="298" y="213" text-anchor="middle" font-size="11" fill="#8b949e">смоляные ходы,</text>
  <text x="298" y="226" text-anchor="middle" font-size="11" fill="#8b949e">нектарники</text>

  <text x="180" y="278" text-anchor="middle" font-size="11" fill="#8b949e">Виды тканей растений</text>
</svg>
