<svg xmlns="http://www.w3.org/2000/svg" viewBox="0 0 360 300" font-family="system-ui,sans-serif">
  <rect width="360" height="300" fill="#0d1117"/>
  <!-- Cell wall -->
  <rect x="30" y="20" width="300" height="260" rx="40" fill="none" stroke="#8cc882" stroke-width="8"/>
  <!-- Cell membrane -->
  <rect x="40" y="30" width="280" height="240" rx="34" fill="none" stroke="#a8c5d8" stroke-width="2" stroke-dasharray="6,3"/>
  <!-- Cytoplasm fill -->
  <rect x="42" y="32" width="276" height="236" rx="32" fill="#0f1f17" opacity="0.6"/>

  <!-- Vacuole (large, center-left) -->
  <ellipse cx="155" cy="160" rx="90" ry="90" fill="#1a3a4a" stroke="#a8c5d8" stroke-width="2"/>
  <text x="155" y="155" text-anchor="middle" font-size="11" fill="#a8c5d8">вакуоль</text>
  <text x="155" y="170" text-anchor="middle" font-size="9" fill="#8b949e">клеточный сок</text>

  <!-- Nucleus (top right) -->
  <ellipse cx="265" cy="90" rx="42" ry="32" fill="#21262d" stroke="#e8c891" stroke-width="2"/>
  <ellipse cx="265" cy="90" rx="20" ry="15" fill="#3d3520" stroke="#e8c891" stroke-width="1.5"/>
  <text x="265" y="86" text-anchor="middle" font-size="10" fill="#e8c891">ядро</text>
  <text x="265" y="100" text-anchor="middle" font-size="9" fill="#8b949e">ядрышко</text>

  <!-- Chloroplasts -->
  <ellipse cx="290" cy="170" rx="22" ry="13" fill="#1a4a1a" stroke="#8cc882" stroke-width="1.5"/>
  <text x="290" y="174" text-anchor="middle" font-size="9" fill="#8cc882">хлп</text>
  <ellipse cx="255" cy="220" rx="22" ry="13" fill="#1a4a1a" stroke="#8cc882" stroke-width="1.5"/>
  <text x="255" y="224" text-anchor="middle" font-size="9" fill="#8cc882">хлп</text>
  <ellipse cx="300" cy="240" rx="22" ry="13" fill="#1a4a1a" stroke="#8cc882" stroke-width="1.5"/>
  <text x="300" y="244" text-anchor="middle" font-size="9" fill="#8cc882">хлп</text>

  <!-- Mitochondria -->
  <ellipse cx="75" cy="80" rx="18" ry="10" fill="#3a1a0a" stroke="#e8a070" stroke-width="1.5"/>
  <text x="75" y="84" text-anchor="middle" font-size="9" fill="#e8a070">митх</text>
  <ellipse cx="75" cy="230" rx="18" ry="10" fill="#3a1a0a" stroke="#e8a070" stroke-width="1.5"/>
  <text x="75" y="234" text-anchor="middle" font-size="9" fill="#e8a070">митх</text>

  <!-- Labels: cell wall, membrane -->
  <line x1="30" y1="150" x2="10" y2="150" stroke="#8cc882" stroke-width="1"/>
  <text x="15" y="140" text-anchor="start" font-size="9" fill="#8cc882">клеточная</text>
  <text x="15" y="152" text-anchor="start" font-size="9" fill="#8cc882">стенка</text>

  <!-- Title -->
  <text x="180" y="295" text-anchor="middle" font-size="11" fill="#8b949e">Растительная клетка</text>
</svg>
