<svg xmlns="http://www.w3.org/2000/svg" viewBox="0 0 360 300" font-family="system-ui,sans-serif">
  <rect width="360" height="300" fill="#0d1117"/>
  <text x="180" y="16" text-anchor="middle" font-size="12" fill="#e8c891" font-weight="600">Корневые системы</text>

  <!-- Left: Стержневая (Taproot) -->
  <rect x="10" y="26" width="160" height="250" rx="8" fill="#0a1a0a" stroke="#8cc882" stroke-width="2"/>
  <text x="90" y="44" text-anchor="middle" font-size="11" fill="#8cc882">Стержневая</text>

  <!-- Stem stub -->
  <rect x="84" y="50" width="12" height="20" rx="3" fill="#1a3a1a" stroke="#8cc882" stroke-width="1"/>

  <!-- Main taproot -->
  <path d="M90,70 L90,185" stroke="#e8a070" stroke-width="5" stroke-linecap="round"/>
  <!-- Lateral roots -->
  <line x1="90" y1="90"  x2="55"  y2="112" stroke="#e8a070" stroke-width="2.5"/>
  <line x1="90" y1="110" x2="125" y2="128" stroke="#e8a070" stroke-width="2.5"/>
  <line x1="90" y1="130" x2="52"  y2="148" stroke="#e8a070" stroke-width="2"/>
  <line x1="90" y1="148" x2="128" y2="162" stroke="#e8a070" stroke-width="2"/>
  <line x1="90" y1="164" x2="58"  y2="176" stroke="#e8a070" stroke-width="1.5"/>
  <!-- Root hair zone -->
  <line x1="90" y1="172" x2="100" y2="185" stroke="#e8a070" stroke-width="1.5"/>
  <line x1="90" y1="178" x2="80" y2="192" stroke="#e8a070" stroke-width="1.5"/>

  <!-- Labels -->
  <text x="130" y="84" font-size="9" fill="#e8a070">главный</text>
  <text x="130" y="94" font-size="9" fill="#e8a070">корень</text>
  <line x1="128" y1="80" x2="97" y2="82" stroke="#8b949e" stroke-width="0.7"/>
  <text x="30" y="118" text-anchor="end" font-size="9" fill="#8b949e">боковые</text>
  <text x="30" y="128" text-anchor="end" font-size="9" fill="#8b949e">корни</text>
  <line x1="32" y1="122" x2="52" y2="110" stroke="#8b949e" stroke-width="0.7"/>

  <text x="90" y="210" text-anchor="middle" font-size="9" fill="#8b949e">один мощный главный</text>
  <text x="90" y="222" text-anchor="middle" font-size="9" fill="#8b949e">корень + боковые</text>
  <rect x="20" y="234" width="140" height="32" rx="5" fill="#0f1a0f" stroke="#8cc882" stroke-width="1"/>
  <text x="90" y="248" text-anchor="middle" font-size="9" fill="#8cc882">Двудольные:</text>
  <text x="90" y="260" text-anchor="middle" font-size="9" fill="#8b949e">морковь, одуванчик, фасоль</text>

  <!-- Right: Мочковатая (Fibrous) -->
  <rect x="190" y="26" width="160" height="250" rx="8" fill="#1a0a1a" stroke="#a8c5d8" stroke-width="2"/>
  <text x="270" y="44" text-anchor="middle" font-size="11" fill="#a8c5d8">Мочковатая</text>

  <!-- Stem stub -->
  <rect x="264" y="50" width="12" height="20" rx="3" fill="#1a1a3a" stroke="#a8c5d8" stroke-width="1"/>

  <!-- Multiple fibrous roots (no main root) -->
  <g stroke="#a8c5d8" stroke-linecap="round" fill="none">
    <path d="M270,70 L248,130" stroke-width="2.5"/>
    <path d="M270,70 L255,140" stroke-width="2.5"/>
    <path d="M270,70 L262,150" stroke-width="2.5"/>
    <path d="M270,70 L270,155" stroke-width="2.5"/>
    <path d="M270,70 L278,150" stroke-width="2.5"/>
    <path d="M270,70 L285,140" stroke-width="2.5"/>
    <path d="M270,70 L292,130" stroke-width="2.5"/>
    <!-- Fine root hairs at tips -->
    <path d="M248,130 L238,145" stroke-width="1.5"/>
    <path d="M255,140 L245,158" stroke-width="1.5"/>
    <path d="M270,155 L262,172" stroke-width="1.5"/>
    <path d="M270,155 L278,172" stroke-width="1.5"/>
    <path d="M285,140 L295,158" stroke-width="1.5"/>
    <path d="M292,130 L302,145" stroke-width="1.5"/>
    <path d="M248,130 L240,152" stroke-width="1.2"/>
    <path d="M292,130 L300,152" stroke-width="1.2"/>
  </g>

  <!-- Label -->
  <text x="270" y="195" text-anchor="middle" font-size="9" fill="#8b949e">много одинаковых</text>
  <text x="270" y="207" text-anchor="middle" font-size="9" fill="#8b949e">придаточных корней</text>
  <text x="270" y="220" text-anchor="middle" font-size="9" fill="#8b949e">главный не выражен</text>
  <rect x="200" y="234" width="140" height="32" rx="5" fill="#0f0f1a" stroke="#a8c5d8" stroke-width="1"/>
  <text x="270" y="248" text-anchor="middle" font-size="9" fill="#a8c5d8">Однодольные:</text>
  <text x="270" y="260" text-anchor="middle" font-size="9" fill="#8b949e">пшеница, лук, кукуруза</text>

  <text x="180" y="285" text-anchor="middle" font-size="11" fill="#8b949e">Сравнение типов корневых систем</text>
</svg>
