<svg xmlns="http://www.w3.org/2000/svg" viewBox="0 0 360 300" font-family="system-ui,sans-serif">
  <rect width="360" height="300" fill="#0d1117"/>
  <text x="180" y="16" text-anchor="middle" font-size="12" fill="#e8c891" font-weight="600">Видоизменения корней</text>

  <!-- 1. Корнеплод (Root vegetable) - морковь -->
  <rect x="5" y="26" width="107" height="138" rx="6" fill="#1a0f08" stroke="#e8a070" stroke-width="1.5"/>
  <text x="58" y="42" text-anchor="middle" font-size="11" fill="#e8a070">Корнеплод</text>
  <!-- Carrot shape -->
  <path d="M58,50 L49,100 Q47,120 58,130 Q69,120 67,100 Z" fill="#2a1808" stroke="#e8a070" stroke-width="1.5"/>
  <!-- Leaves at top -->
  <path d="M54,50 Q46,35 39,28" stroke="#8cc882" stroke-width="1.5" fill="none"/>
  <path d="M58,50 Q58,30 58,22" stroke="#8cc882" stroke-width="1.5" fill="none"/>
  <path d="M62,50 Q70,35 77,28" stroke="#8cc882" stroke-width="1.5" fill="none"/>
  <!-- Lateral roots -->
  <line x1="51" y1="90"  x2="39" y2="98"  stroke="#e8a070" stroke-width="1"/>
  <line x1="65" y1="100" x2="77" y2="108" stroke="#e8a070" stroke-width="1"/>
  <text x="58" y="148" text-anchor="middle" font-size="11" fill="#8b949e">запас веществ</text>
  <text x="58" y="160" text-anchor="middle" font-size="11" fill="#e8a070">морковь, свёкла</text>

  <!-- 2. Воздушные корни -->
  <rect x="126" y="26" width="107" height="138" rx="6" fill="#0a1a2a" stroke="#a8c5d8" stroke-width="1.5"/>
  <text x="179" y="42" text-anchor="middle" font-size="11" fill="#a8c5d8">Воздушные корни</text>
  <!-- Branch -->
  <path d="M138,60 L218,60" stroke="#8cc882" stroke-width="6" stroke-linecap="round"/>
  <!-- Hanging aerial roots -->
  <g stroke="#a8c5d8" stroke-width="2.5" stroke-linecap="round" fill="none">
    <path d="M153,60 Q150,90 148,130"/>
    <path d="M168,60 Q166,90 168,140"/>
    <path d="M183,60 Q185,95 186,138"/>
    <path d="M198,60 Q203,90 205,130"/>
  </g>
  <!-- Orchid on branch -->
  <ellipse cx="179" cy="48" rx="12" ry="8" fill="#1a3a1a" stroke="#8cc882" stroke-width="1"/>
  <text x="179" y="148" text-anchor="middle" font-size="11" fill="#8b949e">поглощают влагу</text>
  <text x="179" y="160" text-anchor="middle" font-size="11" fill="#a8c5d8">орхидея, плющ</text>

  <!-- 3. Ходульные корни -->
  <rect x="247" y="26" width="107" height="138" rx="6" fill="#0a1a0a" stroke="#8cc882" stroke-width="1.5"/>
  <text x="300" y="42" text-anchor="middle" font-size="11" fill="#8cc882">Ходульные корни</text>
  <!-- Stem -->
  <line x1="300" y1="55" x2="300" y2="130" stroke="#8cc882" stroke-width="6"/>
  <!-- Stilt prop roots -->
  <line x1="300" y1="90"  x2="267" y2="130" stroke="#e8a070" stroke-width="2.5"/>
  <line x1="300" y1="90"  x2="333" y2="130" stroke="#e8a070" stroke-width="2.5"/>
  <line x1="300" y1="105" x2="273" y2="130" stroke="#e8a070" stroke-width="2"/>
  <line x1="300" y1="105" x2="327" y2="130" stroke="#e8a070" stroke-width="2"/>
  <!-- Ground line -->
  <line x1="253" y1="130" x2="347" y2="130" stroke="#3d2a10" stroke-width="1.5"/>
  <!-- Leaves -->
  <path d="M300,55 Q274,42 257,38" stroke="#8cc882" stroke-width="4" fill="none" stroke-linecap="round"/>
  <path d="M300,55 Q326,42 343,38" stroke="#8cc882" stroke-width="4" fill="none" stroke-linecap="round"/>
  <text x="300" y="148" text-anchor="middle" font-size="11" fill="#8b949e">опора стебля</text>
  <text x="300" y="160" text-anchor="middle" font-size="11" fill="#8cc882">кукуруза, баньян</text>

  <!-- Bottom row: 2 more modifications -->
  <!-- 4. Микориза -->
  <rect x="5" y="172" width="160" height="115" rx="6" fill="#1a0a1a" stroke="#a8c5d8" stroke-width="1.5"/>
  <text x="85" y="188" text-anchor="middle" font-size="11" fill="#a8c5d8">Микориза</text>
  <!-- Root with fungal hyphae -->
  <path d="M85,202 L85,252" stroke="#e8a070" stroke-width="5" stroke-linecap="round"/>
  <g stroke="#a8c5d8" stroke-width="1" fill="none" opacity="0.8">
    <path d="M85,212 Q65,207 45,217 Q30,227 40,242"/>
    <path d="M85,222 Q105,217 120,227 Q135,240 125,254"/>
    <path d="M85,237 Q70,230 55,242 Q42,252 48,267"/>
  </g>
  <text x="85" y="268" text-anchor="middle" font-size="11" fill="#8b949e">гриб ↔ корень</text>
  <text x="85" y="281" text-anchor="middle" font-size="11" fill="#8b949e">симбиоз</text>

  <!-- 5. Дыхательные корни -->
  <rect x="190" y="172" width="165" height="115" rx="6" fill="#0a1a1a" stroke="#8cc882" stroke-width="1.5"/>
  <text x="272" y="188" text-anchor="middle" font-size="11" fill="#8cc882">Дыхательные корни</text>
  <!-- Water level -->
  <line x1="200" y1="237" x2="350" y2="237" stroke="#a8c5d8" stroke-width="1.5" stroke-dasharray="4,3"/>
  <text x="346" y="233" font-size="11" fill="#a8c5d8">H₂O</text>
  <!-- Roots pointing up through water surface -->
  <path d="M225,277 L225,222" stroke="#e8a070" stroke-width="3" stroke-linecap="round"/>
  <path d="M250,277 L250,214" stroke="#e8a070" stroke-width="3" stroke-linecap="round"/>
  <path d="M275,277 L275,220" stroke="#e8a070" stroke-width="3" stroke-linecap="round"/>
  <path d="M300,277 L300,210" stroke="#e8a070" stroke-width="3" stroke-linecap="round"/>
  <path d="M325,277 L325,217" stroke="#e8a070" stroke-width="3" stroke-linecap="round"/>
  <!-- Air pores at tips -->
  <circle cx="225" cy="220" r="5" fill="#0d1117" stroke="#8cc882" stroke-width="1.5"/>
  <circle cx="250" cy="212" r="5" fill="#0d1117" stroke="#8cc882" stroke-width="1.5"/>
  <circle cx="275" cy="218" r="5" fill="#0d1117" stroke="#8cc882" stroke-width="1.5"/>
  <circle cx="300" cy="208" r="5" fill="#0d1117" stroke="#8cc882" stroke-width="1.5"/>
  <circle cx="325" cy="215" r="5" fill="#0d1117" stroke="#8cc882" stroke-width="1.5"/>
  <text x="272" y="268" text-anchor="middle" font-size="11" fill="#8b949e">выходят из воды вверх</text>
  <text x="272" y="281" text-anchor="middle" font-size="11" fill="#8cc882">мангровые деревья</text>
  <text x="180" y="297" text-anchor="middle" font-size="11" fill="#8b949e">Видоизменения корней</text>
</svg>
